<?xml version="1.0" encoding="UTF-8" standalone="no"?>
<svg
   width="456"
   height="456"
   viewBox="0 0 456 456"
   version="1.1"
   xml:space="preserve"
   style="fill-rule:evenodd;clip-rule:evenodd;stroke-linejoin:round;stroke-miterlimit:2;"
   id="svg4"
   sodipodi:docname="splash.svg"
   inkscape:version="1.3 (0e150ed6c4, 2023-07-21)"
   xmlns:inkscape="http://www.inkscape.org/namespaces/inkscape"
   xmlns:sodipodi="http://sodipodi.sourceforge.net/DTD/sodipodi-0.dtd"
   xmlns="http://www.w3.org/2000/svg"
   xmlns:svg="http://www.w3.org/2000/svg"><defs
   id="defs4" /><sodipodi:namedview
   id="namedview4"
   pagecolor="#505050"
   bordercolor="#eeeeee"
   borderopacity="1"
   inkscape:showpageshadow="0"
   inkscape:pageopacity="0"
   inkscape:pagecheckerboard="0"
   inkscape:deskcolor="#505050"
   inkscape:zoom="0.9002193"
   inkscape:cx="484.88185"
   inkscape:cy="397.12546"
   inkscape:window-width="1920"
   inkscape:window-height="1017"
   inkscape:window-x="-8"
   inkscape:window-y="-8"
   inkscape:window-maximized="1"
   inkscape:current-layer="svg4" />&#10;    &#10;    &#10;    &#10;    &#10;<path
   style="display:inline;fill:#0066ff;fill-opacity:1;stroke:#0066ff;stroke-width:0.148393;stroke-miterlimit:4;stroke-dasharray:none;stroke-dashoffset:0"
   d="m 62.612614,264.47742 c -1.948019,-0.41558 -8.116992,-1.97594 -8.220238,-2.0792 -0.06777,-0.0677 0.647632,-11.04724 0.833021,-12.78548 l 0.05259,-0.49302 -1.509409,-0.7502 c -1.428197,-0.7098 -2.079623,-1.0664 -4.507791,-2.46737 -0.564489,-0.32567 -1.122121,-0.59215 -1.239279,-0.59215 -0.301017,0 -0.971414,0.45315 -5.058634,3.41944 -4.029839,2.92456 -5.603818,4.02072 -5.773431,4.02072 -0.143585,0 -1.412088,-1.19219 -4.359945,-4.09765 l -2.308414,-2.27514 0.129007,-0.24944 c 0.170079,-0.32902 5.887926,-8.90859 6.537688,-9.80981 0.513232,-0.71187 0.593578,-0.98106 0.401466,-1.34505 -0.05658,-0.10769 -0.515695,-0.84121 -1.019675,-1.63005 -1.075791,-1.68394 -1.663379,-2.67601 -2.195449,-3.70704 -0.535067,-1.03675 -0.851793,-1.35763 -1.33993,-1.35763 -0.393012,0 -11.00434,1.09914 -12.074539,1.2507 -0.333102,0.0471 -0.610953,0.0775 -0.617477,0.0674 -0.02529,-0.0389 -2.198977,-7.76056 -2.347688,-8.33877 -0.153104,-0.59535 -0.152705,-0.61412 0.01464,-0.71712 0.823767,-0.50736 2.782305,-1.50842 6.865065,-3.50895 4.768268,-2.33642 4.795627,-2.3514 4.774259,-2.61077 -0.01198,-0.14348 -0.04793,-2.03038 -0.07955,-4.19312 l -0.05791,-3.93225 -0.413448,-0.18092 c -3.780345,-1.65404 -8.656385,-3.84371 -9.936937,-4.46228 l -1.635087,-0.78986 0.05525,-0.29834 c 0.245633,-1.32422 1.58889,-6.85716 1.987561,-8.18669 0.153437,-0.5118 0.176203,-0.53912 0.470163,-0.56412 0.169946,-0.0144 2.265345,0.11888 4.656502,0.29631 2.391157,0.17742 5.142175,0.34653 6.113256,0.37581 1.547219,0.0466 1.793651,0.035 1.991022,-0.0944 0.312799,-0.20494 0.796609,-0.94955 1.639681,-2.52352 0.396074,-0.73953 1.068801,-1.92623 1.494964,-2.63709 0.426096,-0.71086 0.81984,-1.44292 0.874891,-1.62677 l 0.100184,-0.3343 -1.775678,-2.45186 c -4.957451,-6.84512 -5.816699,-8.08936 -5.713254,-8.2731 0.06257,-0.11123 1.761632,-1.91142 5.242359,-5.55443 l 1.105147,-1.15668 4.256899,2.89967 c 4.463258,3.04018 6.031046,4.08183 6.52757,4.337 l 0.298487,0.1534 1.180567,-0.73902 c 2.309279,-1.44558 3.698402,-2.25831 4.78511,-2.79963 0.786623,-0.39182 1.101552,-0.594 1.101552,-0.70715 0,-0.0872 -0.240906,-2.48802 -0.535399,-5.33526 -0.678652,-6.56211 -0.756336,-7.49542 -0.641441,-7.71001 0.06058,-0.11275 0.437879,-0.27553 1.148749,-0.49529 1.596678,-0.49358 3.994425,-1.15999 5.919679,-1.64528 1.52625,-0.38472 1.738,-0.41901 1.855291,-0.30054 0.18326,0.18501 2.11517,4.03314 4.084092,8.13501 l 1.646337,3.4296 4.214696,-0.0233 4.214694,-0.0233 2.493737,-5.60252 c 1.371548,-3.08139 2.571686,-5.77396 2.666944,-5.98349 0.122284,-0.269 0.227526,-0.38097 0.357998,-0.38097 0.33856,0 2.704421,0.53147 5.853578,1.31496 l 3.115007,0.775 v 0.57675 c 0,0.4589 -0.47702,7.72323 -0.767452,11.68779 -0.03728,0.51258 -0.02197,0.83854 0.04527,0.9651 0.06191,0.11634 0.688769,0.48474 1.601138,0.94153 0.824367,0.41273 2.163897,1.13855 2.976614,1.61296 0.812785,0.47439 1.728215,0.99281 2.034291,1.15203 l 0.556568,0.2895 1.232622,-0.84035 c 0.677986,-0.46219 2.666275,-1.87504 4.418525,-3.13967 4.8564,-3.50505 4.91172,-3.54193 5.14676,-3.43483 0.54379,0.24777 6.51007,6.03403 6.51007,6.31365 0,0.0815 -0.095,0.26211 -0.21109,0.40147 -0.37803,0.45387 -2.37611,3.37549 -6.15046,8.99332 -5.34647,7.95777 -7.00772,10.39828 -7.07821,10.39828 -0.10764,0 -0.50398,-0.47043 -0.906248,-1.07569 -4.287786,-6.45133 -10.495967,-11.08739 -17.924523,-13.38534 -6.96385,-2.15421 -14.961952,-1.77786 -21.803985,1.026 -5.509758,2.25791 -10.438653,6.1736 -14.203355,11.28366 -2.470039,3.35271 -4.293179,7.40849 -5.258867,11.69915 -0.916297,4.07105 -1.017479,8.69437 -0.28351,12.95193 0.921156,5.34363 3.416091,10.71798 6.985618,15.0479 0.956902,1.16073 3.383672,3.56682 4.493945,4.45568 5.235569,4.19135 11.349824,6.6738 17.770886,7.21513 1.621242,0.13668 5.360447,0.0626 7.010512,-0.13887 3.246012,-0.39636 5.947438,-1.15637 9.12575,-2.56741 5.871485,-2.60672 10.360704,-6.44967 14.149703,-12.1127 0.519554,-0.77652 0.983794,-1.43606 1.031654,-1.46563 0.0479,-0.0296 0.13474,0.006 0.19305,0.0792 2.41345,3.02416 7.35819,9.45038 11.49926,14.94459 2.10618,2.79428 2.81486,3.78257 2.81486,3.92535 0,0.18821 -5.62898,6.07681 -6.19241,6.47803 l -0.23125,0.16472 -0.75481,-0.45213 c -0.83042,-0.49747 -2.97302,-1.92373 -6.60778,-4.39868 -1.30597,-0.88925 -2.594781,-1.73267 -2.863912,-1.87426 -0.842606,-0.44324 -1.06048,-0.38459 -2.816454,0.75826 -1.152476,0.7501 -2.712742,1.66631 -4.137278,2.42943 l -0.969683,0.51947 0.05858,0.59488 c 0.03195,0.32716 0.258746,2.47058 0.503713,4.76313 0.502249,4.70043 0.790285,7.50527 0.792881,7.71935 0,0.16102 -1.111604,0.50995 -5.685962,1.78176 -3.330086,0.92587 -3.19349,0.90521 -3.479263,0.52576 -0.254086,-0.33743 -1.14522,-2.11272 -3.878132,-7.72629 l -1.869404,-3.83979 -0.274257,0.0484 c -0.622602,0.10987 -4.321534,0.24106 -6.116582,0.21693 l -1.926785,-0.0259 -2.056391,4.61647 c -2.87004,6.44299 -3.337275,7.37221 -3.691212,7.34091 -0.05991,-0.005 -0.290099,-0.0483 -0.511967,-0.0957 z"
   id="path834"
   inkscape:connector-curvature="0"
   inkscape:export-filename="C:\Users\Lukas Pezenka\Desktop\path952.png"
   inkscape:export-xdpi="299"
   inkscape:export-ydpi="299" /><path
   style="fill:#0066ff;fill-opacity:1;stroke:#0066ff;stroke-width:0.148393;stroke-miterlimit:4;stroke-dasharray:none;stroke-dashoffset:0"
   d="m 50.690447,220.80676 c 0,-0.71496 0.118622,-0.89091 0.829226,-1.23012 0.753407,-0.35965 0.922088,-0.56521 1.061213,-1.29318 0.141921,-0.74287 0.219671,-16.50408 0.0906,-18.36873 -0.134732,-1.94719 -0.225729,-2.15303 -1.135502,-2.56928 -0.299086,-0.13685 -0.595243,-0.31077 -0.658016,-0.38649 -0.06324,-0.0757 -0.136396,-0.3812 -0.163355,-0.67885 l -0.04926,-0.54119 1.33467,0.004 c 4.031171,0.0116 12.283228,0.17949 12.917679,0.26282 1.837851,0.24141 3.853503,1.26973 4.784444,2.44085 1.34379,1.69046 1.691669,4.41206 0.884943,6.92241 -0.656818,2.0438 -2.017649,3.53738 -3.993361,4.38285 -1.367621,0.58526 -2.355809,0.74012 -5.236234,0.82057 -1.060015,0.0296 -2.128949,0.0741 -2.375514,0.0988 l -0.448196,0.045 0.0233,2.34946 c 0.03262,3.30115 0.153571,5.17543 0.365454,5.64888 0.218207,0.48768 0.399536,0.64007 1.097758,0.92269 0.316526,0.12813 0.62593,0.27421 0.687571,0.32464 0.06837,0.0559 0.112033,0.31468 0.112033,0.66337 v 0.57169 h -5.064691 -5.064692 z m 9.677791,-12.42983 c 1.442509,-0.11214 2.08628,-0.23818 2.683719,-0.52543 0.895128,-0.4304 1.478921,-1.17062 1.846904,-2.34179 0.227726,-0.72462 0.290433,-3.39365 0.10085,-4.28734 -0.18499,-0.87172 -0.494195,-1.52433 -0.963692,-2.03361 -0.708474,-0.76862 -1.620843,-1.07328 -3.485121,-1.16373 -0.567018,-0.0275 -1.242674,-0.0694 -1.501487,-0.0932 l -0.47063,-0.0431 v 5.28957 5.28956 l 0.336164,-0.002 c 0.184857,-0.001 0.838879,-0.0411 1.453293,-0.0889 z"
   inkscape:connector-curvature="0"
   id="path836"
   inkscape:export-filename="C:\Users\Lukas Pezenka\Desktop\path952.png"
   inkscape:export-xdpi="299"
   inkscape:export-ydpi="299" /><path
   style="fill:#0066ff;fill-opacity:1;stroke:#0066ff;stroke-width:0.148393;stroke-miterlimit:4;stroke-dasharray:none;stroke-dashoffset:0"
   d="m 74.086519,220.84941 c 0,-0.8085 0.05991,-0.90438 0.770912,-1.22825 1.068601,-0.487 1.108076,-0.66347 1.170116,-5.23706 0.06058,-4.46477 -0.100849,-15.8064 -0.231121,-16.23584 -0.107905,-0.35592 -0.490999,-0.66763 -1.181497,-0.96131 -0.445268,-0.1894 -0.52841,-0.36247 -0.52841,-1.10068 v -0.34735 h 9.277788 9.277789 v 2.95813 2.95812 h -1.29919 -1.29919 l -0.629126,-1.25586 c -0.724982,-1.44721 -1.083379,-1.8948 -1.684347,-2.10366 -0.556168,-0.19329 -2.102256,-0.31098 -4.119372,-0.3136 l -1.635953,-0.002 v 4.43719 4.4372 l 0.82916,-0.004 c 1.379337,-0.007 2.644511,-0.14015 2.897799,-0.30614 0.329307,-0.21574 0.910837,-1.15845 1.104814,-1.79097 l 0.166684,-0.54337 1.086375,-0.0252 1.086375,-0.0252 v 3.76766 3.76765 l -0.918826,-0.001 c -0.551907,-6.7e-4 -1.003831,-0.0455 -1.131773,-0.11205 -0.142121,-0.0739 -0.28098,-0.29988 -0.417642,-0.67966 -0.525614,-1.46096 -1.03858,-1.75002 -3.291144,-1.85464 l -1.411822,-0.0656 v 4.99809 4.99809 l 2.44268,-0.0449 c 2.792889,-0.0513 3.00617,-0.0941 3.735479,-0.74989 0.596042,-0.53588 1.11187,-1.37818 1.667706,-2.72327 l 0.462974,-1.1205 1.289604,-0.0615 c 0.709206,-0.0337 1.296594,-0.0539 1.305181,-0.0448 0.0087,0.009 -0.01864,0.35947 -0.05991,0.77853 -0.04127,0.41907 -0.118356,1.54854 -0.170745,2.50993 -0.05259,0.9614 -0.119887,2.18162 -0.150042,2.71163 l -0.05459,0.96363 h -9.178338 -9.178336 z"
   inkscape:connector-curvature="0"
   id="path838"
   inkscape:export-filename="C:\Users\Lukas Pezenka\Desktop\path952.png"
   inkscape:export-xdpi="299"
   inkscape:export-ydpi="299" /><path
   style="fill:#999999;fill-opacity:1;stroke:#999999;stroke-width:0.41972;stroke-miterlimit:4;stroke-dasharray:none;stroke-dashoffset:0"
   d="m 95.999208,220.63134 c 0,-0.23387 0.370845,-0.73464 0.824034,-1.11281 l 0.824034,-0.68758 0.08467,-5.90935 c 0.103378,-7.20949 0.01331,-7.98811 -0.991717,-8.558 -0.692564,-0.39284 -1.194613,-1.19287 -0.920556,-1.46698 0.0659,-0.0662 1.748784,-0.18996 3.739207,-0.27508 l 3.61885,-0.15477 -0.14817,1.43513 c -0.0814,0.78932 -0.0995,1.43513 -0.0399,1.43513 0.0592,0 0.76425,-0.50659 1.56632,-1.12574 1.6717,-1.29056 3.09011,-1.72567 5.26273,-1.61433 l 1.51979,0.0779 0.0726,2.47202 0.0726,2.47202 h -1.63656 c -1.58769,0 -1.65239,-0.0257 -2.16942,-0.86223 -0.90757,-1.46847 -2.17747,-1.59025 -3.43806,-0.32969 -0.72444,0.72445 -0.86144,1.07033 -1.02353,2.58421 -0.20996,1.96009 -0.0146,9.13665 0.268,9.83629 0.10058,0.24919 0.5113,0.62292 0.91277,0.83052 0.43022,0.22249 0.7299,0.58294 0.7299,0.87801 0,0.47987 -0.18885,0.50057 -4.56377,0.50057 -4.101867,0 -4.563709,-0.043 -4.563709,-0.42523 z"
   id="path844"
   inkscape:connector-curvature="0"
   inkscape:export-filename="C:\Users\Lukas Pezenka\Desktop\path952.png"
   inkscape:export-xdpi="299"
   inkscape:export-ydpi="299" /><path
   style="fill:#999999;fill-opacity:1;stroke:#999999;stroke-width:0.41972;stroke-miterlimit:4;stroke-dasharray:none;stroke-dashoffset:0"
   d="m 113.49357,220.69438 c 0,-0.38367 0.66334,-1.15905 0.99159,-1.15905 0.6188,0 0.78316,-1.59451 0.78316,-7.59742 0,-3.46823 -0.0692,-6.48634 -0.15384,-6.70692 -0.10391,-0.27067 -0.47482,-0.40104 -1.14096,-0.40104 -1.27709,0 -1.33746,-0.6401 -0.10877,-1.15346 1.06914,-0.44673 1.22104,-0.72358 1.76909,-3.22432 0.55251,-2.52101 1.51094,-3.84969 3.49124,-4.83997 1.62877,-0.81448 4.6398,-1.28506 6.60186,-1.03178 l 1.2043,0.15546 v 1.87778 1.87776 h -1.07063 c -0.94452,0 -1.1797,-0.1266 -1.99602,-1.07447 -0.85285,-0.99023 -0.98219,-1.05449 -1.64953,-0.81979 -1.0666,0.37509 -1.36083,1.20697 -1.36509,3.8592 l -0.007,2.34525 h 1.64801 1.648 v 1.01417 1.01417 h -1.648 -1.64801 v 6.82487 c 0,3.75368 0.0708,7.00957 0.1575,7.2353 0.0866,0.22573 0.48594,0.58027 0.88741,0.78787 0.43022,0.22249 0.72984,0.58294 0.72984,0.87801 0,0.47987 -0.18879,0.50057 -4.56371,0.50057 -3.7862,0 -4.56377,-0.0617 -4.56377,-0.36219 z"
   id="path846"
   inkscape:connector-curvature="0"
   inkscape:export-filename="C:\Users\Lukas Pezenka\Desktop\path952.png"
   inkscape:export-xdpi="299"
   inkscape:export-ydpi="299" /><path
   style="fill:#999999;fill-opacity:1;stroke:#999999;stroke-width:0.41972;stroke-miterlimit:4;stroke-dasharray:none;stroke-dashoffset:0"
   d="m 131.57648,220.85585 c -3.95337,-1.41432 -5.55092,-4.21576 -5.36131,-9.4014 0.0816,-2.23181 0.21122,-2.93789 0.75461,-4.11102 0.83181,-1.79581 2.19104,-3.15781 3.99619,-4.00435 1.2709,-0.596 1.71592,-0.66423 4.33212,-0.66423 2.60577,0 3.06414,0.0696 4.31175,0.65489 0.7678,0.3602 1.78518,1.04407 2.26082,1.51971 0.47564,0.47564 1.15951,1.49301 1.51971,2.26082 0.59899,1.27685 0.65489,1.67738 0.65489,4.69206 0,3.1137 -0.0401,3.37778 -0.72565,4.77385 -0.9239,1.88156 -2.15422,3.10825 -3.93524,3.92363 -1.92357,0.88064 -5.84206,1.05933 -7.80789,0.35604 z m 5.02413,-1.71884 c 1.04319,-0.53945 1.69443,-2.11191 1.95134,-4.71162 0.39082,-3.95469 -0.31646,-8.13059 -1.57776,-9.31552 -1.46216,-1.37364 -3.62595,-0.80499 -4.55065,1.19593 -0.4897,1.05963 -0.54825,1.61958 -0.54825,5.24298 0,3.26967 0.0896,4.31344 0.46159,5.38027 0.79947,2.29248 2.44873,3.14654 4.26373,2.20796 z"
   id="path848"
   inkscape:connector-curvature="0"
   inkscape:export-filename="C:\Users\Lukas Pezenka\Desktop\path952.png"
   inkscape:export-xdpi="299"
   inkscape:export-ydpi="299" /><path
   style="fill:#999999;fill-opacity:1;stroke:#999999;stroke-width:0.41972;stroke-miterlimit:4;stroke-dasharray:none;stroke-dashoffset:0"
   d="m 147.72161,220.63134 c 0,-0.23387 0.37081,-0.73465 0.82401,-1.11284 l 0.82401,-0.6876 v -6.9341 -6.93409 l -0.95078,-0.61595 c -1.49839,-0.97069 -1.27949,-1.44077 0.76062,-1.63345 0.94127,-0.0889 2.60384,-0.16244 3.69459,-0.16343 l 1.98319,-0.002 -0.17423,1.39447 c -0.0958,0.76696 -0.10242,1.39448 -0.0147,1.39448 0.0878,0 0.77774,-0.50351 1.53328,-1.11891 1.5606,-1.27112 3.21268,-1.7631 5.46473,-1.62733 l 1.39447,0.0841 0.0726,2.47203 0.0726,2.47203 h -1.76688 c -1.48729,0 -1.79011,-0.0732 -1.91365,-0.46239 -0.27441,-0.8646 -1.1502,-1.56594 -1.95544,-1.56594 -0.56868,0 -1.04779,0.26721 -1.76491,0.98434 l -0.98434,0.98433 0.003,4.78372 c 0.003,6.10718 0.0842,6.60413 1.17636,7.24851 0.48975,0.28896 0.84917,0.70506 0.84917,0.98307 0,0.45583 -0.24806,0.48204 -4.56374,0.48204 -4.10189,0 -4.56374,-0.043 -4.56374,-0.42524 z"
   id="path850"
   inkscape:connector-curvature="0"
   inkscape:export-filename="C:\Users\Lukas Pezenka\Desktop\path952.png"
   inkscape:export-xdpi="299"
   inkscape:export-ydpi="299" /><path
   style="fill:#999999;fill-opacity:1;stroke:#999999;stroke-width:0.41972;stroke-miterlimit:4;stroke-dasharray:none;stroke-dashoffset:0"
   d="m 165.21595,220.69438 c 0,-0.39965 0.66852,-1.15905 1.02035,-1.15905 0.5332,0 0.75169,-2.25734 0.75302,-7.77988 6.6e-4,-3.23309 -0.10778,-6.16553 -0.24123,-6.51654 -0.13347,-0.35102 -0.58984,-0.81775 -1.01417,-1.03718 -0.43319,-0.22401 -0.77152,-0.6024 -0.77152,-0.86287 0,-0.38774 0.28101,-0.49046 1.7114,-0.62555 0.94128,-0.0889 2.60384,-0.16244 3.6946,-0.16343 l 1.98318,-0.002 -0.17422,1.39447 c -0.0958,0.76696 -0.0947,1.39448 0.003,1.39448 0.0972,0 0.65228,-0.38513 1.23354,-0.85583 1.8699,-1.51423 2.63111,-1.79369 4.90385,-1.80031 2.30028,-0.007 3.0499,0.33769 4.01275,1.84355 0.2789,0.43618 0.60476,0.79745 0.72415,0.80282 0.11938,0.005 0.6328,-0.31198 1.14093,-0.70522 2.23292,-1.72805 2.80773,-1.9472 5.1073,-1.9472 2.52866,0 3.45181,0.47478 4.35516,2.23985 0.48922,0.9559 0.55862,1.64603 0.73084,7.26794 0.10467,3.41647 0.26774,6.40459 0.36239,6.64025 0.0947,0.23566 0.44775,0.6091 0.78466,0.82985 0.33691,0.22075 0.61257,0.62693 0.61257,0.90261 0,0.47963 -0.18579,0.50124 -4.3102,0.50124 -3.88292,0 -4.3102,-0.0426 -4.3102,-0.42983 0,-0.23641 0.31376,-0.75699 0.69724,-1.15687 0.69549,-0.72523 0.69744,-0.73762 0.78148,-4.95792 0.1148,-5.76588 -0.0897,-7.80892 -0.8584,-8.57767 -0.74208,-0.74207 -1.96245,-0.78187 -3.08004,-0.10045 -1.47708,0.90064 -1.59694,1.44154 -1.59694,7.20709 0,2.85652 0.10756,5.47658 0.23902,5.82235 0.13146,0.34576 0.47374,0.70315 0.76062,0.79421 0.33813,0.10732 0.52161,0.3825 0.52161,0.78232 v 0.61677 h -4.31019 c -3.89992,0 -4.31021,-0.0413 -4.31021,-0.43418 0,-0.23879 0.30586,-0.67806 0.6797,-0.97614 0.81829,-0.65249 1.04704,-2.04094 1.06256,-6.44946 0.0225,-6.39216 -0.54691,-8.0267 -2.71231,-7.78606 -1.3274,0.14751 -2.46448,1.13148 -2.86943,2.48307 -0.17837,0.59538 -0.24151,2.73214 -0.17553,5.94063 l 0.10305,5.01081 0.81505,0.68043 c 0.44827,0.37423 0.81504,0.87178 0.81504,1.10566 0,0.38175 -0.4537,0.42524 -4.43697,0.42524 -3.67634,0 -4.43696,-0.0621 -4.43696,-0.36221 z"
   id="path852"
   inkscape:connector-curvature="0"
   inkscape:export-filename="C:\Users\Lukas Pezenka\Desktop\path952.png"
   inkscape:export-xdpi="299"
   inkscape:export-ydpi="299" /><path
   style="fill:#999999;fill-opacity:1;stroke:#999999;stroke-width:0.41972;stroke-miterlimit:4;stroke-dasharray:none;stroke-dashoffset:0"
   d="m 201.33507,220.83355 c -3.80015,-1.72617 -3.38099,-6.46197 0.75912,-8.5771 1.2803,-0.65409 5.18078,-1.58571 6.6642,-1.59173 l 0.82078,-0.003 -0.15711,-1.96494 c -0.19844,-2.48198 -0.59726,-3.46893 -1.61424,-3.99483 -1.7493,-0.90461 -3.66404,0.16365 -4.34055,2.42162 l -0.30043,1.00274 h -1.76419 -1.76419 l 0.18267,-1.7114 c 0.10048,-0.94127 0.31343,-1.79303 0.47323,-1.89279 0.15981,-0.0998 1.37445,-0.54039 2.6992,-0.97917 1.87011,-0.6194 2.97553,-0.82084 4.94406,-0.901 3.30543,-0.13459 4.7251,0.32035 5.79953,1.85849 0.69664,0.9973 0.75641,1.27792 0.94482,4.43697 0.11063,1.85478 0.20875,4.6844 0.21805,6.28805 0.0205,3.53443 0.12418,3.97158 1.05636,4.45364 0.42903,0.22185 0.72841,0.5824 0.72841,0.87723 0,0.47324 -0.18361,0.50057 -3.36126,0.50057 h -3.36124 l 0.0907,-1.14093 c 0.10906,-1.37119 -0.13339,-1.43325 -1.45376,-0.37216 -2.07689,1.66903 -5.20638,2.2248 -7.2642,1.29007 z m 6.06104,-2.40843 c 1.53833,-0.64275 1.93598,-1.45551 1.93598,-3.95694 v -2.20981 l -1.28522,0.20317 c -2.56404,0.40531 -3.97224,1.55332 -4.19441,3.41939 -0.13962,1.17265 0.29507,2.12319 1.17443,2.56811 0.81274,0.41123 1.34051,0.40589 2.36922,-0.024 z"
   id="path854"
   inkscape:connector-curvature="0"
   inkscape:export-filename="C:\Users\Lukas Pezenka\Desktop\path952.png"
   inkscape:export-xdpi="299"
   inkscape:export-ydpi="299" /><path
   style="fill:#999999;fill-opacity:1;stroke:#999999;stroke-width:0.41972;stroke-miterlimit:4;stroke-dasharray:none;stroke-dashoffset:0"
   d="m 219.47373,220.54405 c 0,-0.29903 0.26096,-0.63141 0.62653,-0.79797 1.05759,-0.48188 1.20987,-1.53548 1.17731,-8.14575 -0.0319,-6.46694 -0.12972,-7.03384 -1.27703,-7.39798 -0.47613,-0.15111 -0.96227,-1.04979 -0.70632,-1.30573 0.0662,-0.0662 1.73093,-0.18919 3.69948,-0.27339 l 3.57918,-0.15307 v 1.30667 c 0,0.71866 0.0401,1.30666 0.0892,1.30666 0.0491,0 0.86913,-0.51228 1.82239,-1.13838 1.94919,-1.28023 2.85057,-1.52601 4.84266,-1.3204 1.83296,0.18918 2.85745,0.83198 3.58774,2.25105 0.56035,1.08887 0.61085,1.52525 0.71804,6.20401 0.16512,7.20776 0.21416,7.54285 1.25638,8.58507 0.47726,0.47726 0.86775,0.98565 0.86775,1.12974 0,0.1706 -1.59213,0.26199 -4.56374,0.26199 -5.0809,0 -5.26945,-0.0759 -3.73973,-1.50446 l 0.82401,-0.76955 0.0808,-5.01136 c 0.0445,-2.75625 0.0106,-5.48539 -0.0753,-6.06474 -0.32354,-2.18275 -2.14471,-3.00749 -3.96133,-1.79391 -1.52887,1.02136 -1.75085,1.82721 -1.72711,6.27008 0.0292,5.45793 0.21972,6.78301 1.07331,7.46363 0.37383,0.29809 0.67969,0.73735 0.67969,0.97614 0,0.39333 -0.41739,0.43417 -4.43697,0.43417 -4.28362,0 -4.43697,-0.0177 -4.43697,-0.51252 z"
   id="path856"
   inkscape:connector-curvature="0"
   inkscape:export-filename="C:\Users\Lukas Pezenka\Desktop\path952.png"
   inkscape:export-xdpi="299"
   inkscape:export-ydpi="299" /><path
   style="fill:#999999;fill-opacity:1;stroke:#999999;stroke-width:0.41972;stroke-miterlimit:4;stroke-dasharray:none;stroke-dashoffset:0"
   d="m 247.84049,220.97482 c -3.13019,-1.16887 -4.52634,-3.07516 -5.05945,-6.90808 -0.7786,-5.59799 1.67016,-9.93995 6.28361,-11.1416 1.6834,-0.43848 5.16946,-0.45582 7.17254,-0.0357 l 1.39448,0.29248 0.0734,2.2298 0.0734,2.22979 -1.80254,-0.0747 -1.80252,-0.0747 -0.55422,-1.39447 c -0.48585,-1.22249 -0.66603,-1.42217 -1.46086,-1.61893 -2.78448,-0.68931 -4.45337,3.30493 -3.79644,9.0863 0.26483,2.33065 0.61717,3.22127 1.65984,4.19552 0.57394,0.53627 0.92255,0.63385 2.26456,0.63385 1.40744,0 1.74649,-0.10643 3.00864,-0.94445 l 1.42245,-0.94446 0.52051,0.66172 c 0.28628,0.36395 0.52051,0.74861 0.52051,0.8548 0,0.40254 -1.93452,1.86813 -3.28446,2.48833 -1.70175,0.78179 -5.13919,1.0225 -6.63349,0.46449 z"
   id="path858"
   inkscape:connector-curvature="0"
   inkscape:export-filename="C:\Users\Lukas Pezenka\Desktop\path952.png"
   inkscape:export-xdpi="299"
   inkscape:export-ydpi="299" /><path
   style="fill:#999999;fill-opacity:1;stroke:#999999;stroke-width:0.41972;stroke-miterlimit:4;stroke-dasharray:none;stroke-dashoffset:0"
   d="m 265.74498,220.96947 c -2.44367,-0.80659 -3.53701,-1.7788 -4.59034,-4.08174 -0.54963,-1.20171 -0.71273,-1.99718 -0.8058,-3.93006 -0.23537,-4.88796 1.40481,-8.0841 5.00295,-9.74895 1.68909,-0.78154 6.26716,-0.76938 7.75728,0.0206 2.42694,1.28665 3.75231,3.59095 4.09243,7.11513 l 0.15293,1.58463 h -5.90333 -5.90331 l 0.13479,1.48661 c 0.17703,1.95224 0.93524,3.61208 1.99539,4.3682 0.72692,0.51845 1.14265,0.60859 2.75752,0.59796 1.98931,-0.0132 2.54363,-0.20454 4.08147,-1.40939 l 0.91221,-0.71469 0.73239,0.76445 0.73239,0.76445 -1.01074,0.87233 c -0.55592,0.47977 -1.74336,1.24077 -2.63877,1.6911 -1.44654,0.72752 -1.89875,0.82633 -4.05666,0.88644 -1.51069,0.0421 -2.81195,-0.0589 -3.4428,-0.26709 z m 6.21176,-11.27568 c 0,-0.99919 -0.57646,-3.50586 -0.95323,-4.145 -1.22051,-2.07044 -3.88439,-1.3623 -4.7157,1.25359 -0.65873,2.07278 -0.7576,2.88677 -0.37978,3.12618 0.18922,0.11989 1.62759,0.21973 3.19637,0.22186 2.5886,0.003 2.85234,-0.0387 2.85234,-0.45663 z"
   id="path860"
   inkscape:connector-curvature="0"
   inkscape:export-filename="C:\Users\Lukas Pezenka\Desktop\path952.png"
   inkscape:export-xdpi="299"
   inkscape:export-ydpi="299" /><path
   style="fill:#999999;fill-opacity:1;stroke:#999999;stroke-width:0.41972;stroke-miterlimit:4;stroke-dasharray:none;stroke-dashoffset:0"
   d="m 288.94399,220.556 c 0,-0.29507 0.29965,-0.65552 0.7299,-0.87801 0.40144,-0.2076 0.81108,-0.58133 0.9103,-0.83052 0.29601,-0.74341 0.4722,-11.52069 0.26792,-16.38803 l -0.18994,-4.5256 -0.85909,-0.50688 c -0.49745,-0.2935 -0.85909,-0.70979 -0.85909,-0.98892 0,-0.46487 0.3293,-0.48203 9.25425,-0.48203 h 9.25425 v 2.78896 2.78894 h -1.36003 -1.36003 l -0.42114,-1.10273 c -0.23162,-0.6065 -0.71235,-1.37663 -1.06828,-1.7114 -0.59549,-0.5601 -0.88837,-0.61542 -3.66996,-0.69329 l -3.02283,-0.0846 v 4.45819 4.4582 h 1.66469 c 2.0202,0 2.49352,-0.22935 3.15692,-1.52972 0.46806,-0.91747 0.60157,-1.00569 1.52208,-1.00569 h 1.00901 v 3.67635 3.67634 h -1.01076 c -0.89979,0 -1.04906,-0.0905 -1.35949,-0.824 -0.57414,-1.35667 -1.18635,-1.72024 -3.17777,-1.8872 l -1.80468,-0.1513 v 5.1076 5.1076 h 2.41679 c 1.51519,0 2.73852,-0.13443 3.27922,-0.36036 0.97832,-0.40876 1.97433,-1.78977 2.43729,-3.37937 l 0.31383,-1.07755 h 1.26477 1.26478 l -0.16398,1.93981 c -0.0902,1.0669 -0.16397,2.60715 -0.16397,3.4228 v 1.48299 h -9.12748 c -8.91888,0 -9.12748,-0.0114 -9.12748,-0.50057 z"
   id="path862"
   inkscape:connector-curvature="0"
   inkscape:export-filename="C:\Users\Lukas Pezenka\Desktop\path952.png"
   inkscape:export-xdpi="299"
   inkscape:export-ydpi="299" /><path
   style="fill:#999999;fill-opacity:1;stroke:#999999;stroke-width:0.41972;stroke-miterlimit:4;stroke-dasharray:none;stroke-dashoffset:0"
   d="m 310.74852,220.63134 c 0,-0.23387 0.37081,-0.73464 0.82401,-1.11281 l 0.82401,-0.68757 0.0839,-6.15401 c 0.0461,-3.38471 0.011,-6.54269 -0.0781,-7.01774 -0.11744,-0.62603 -0.4022,-1.00543 -1.03471,-1.37863 -0.47997,-0.28318 -0.87267,-0.7153 -0.87267,-0.96026 0,-0.36485 0.30941,-0.47459 1.7114,-0.60701 0.94128,-0.0889 2.60384,-0.16244 3.6946,-0.16343 l 1.98318,-0.002 -0.17869,1.43025 c -0.20118,1.61014 -0.34707,1.60719 1.89491,0.0382 0.75481,-0.52822 1.78165,-1.07408 2.28186,-1.21304 1.19078,-0.33078 3.10263,-0.32427 3.99886,0.0136 0.99144,0.37379 2.30157,1.69601 2.61175,2.63587 0.14275,0.43252 0.35646,3.62656 0.47492,7.09787 0.20572,6.02804 0.23998,6.33135 0.7628,6.75471 0.30107,0.24379 0.64489,0.48078 0.76404,0.52664 0.11915,0.0459 0.29645,0.3401 0.394,0.65386 l 0.17737,0.57047 h -4.58082 c -3.80102,0 -4.58083,-0.0617 -4.58083,-0.36221 0,-0.40081 0.66891,-1.15905 1.02251,-1.15905 0.56609,0 0.79278,-2.3085 0.70778,-7.20758 -0.0728,-4.19392 -0.16416,-5.2287 -0.5196,-5.88244 -0.87373,-1.607 -2.85719,-1.4827 -4.50673,0.28244 l -0.63384,0.67827 v 5.71202 5.71202 l 0.82401,0.68803 c 0.4532,0.37842 0.824,0.87938 0.824,1.11326 0,0.38175 -0.4537,0.42524 -4.43697,0.42524 -3.98326,0 -4.43697,-0.0435 -4.43697,-0.42524 z"
   id="path864"
   inkscape:connector-curvature="0"
   inkscape:export-filename="C:\Users\Lukas Pezenka\Desktop\path952.png"
   inkscape:export-xdpi="299"
   inkscape:export-ydpi="299" /><path
   style="fill:#999999;fill-opacity:1;stroke:#999999;stroke-width:0.41972;stroke-miterlimit:4;stroke-dasharray:none;stroke-dashoffset:0"
   d="m 338.60216,229.16058 c -3.75576,-0.281 -5.66879,-1.64172 -5.66879,-4.0322 0,-1.07378 0.12317,-1.349 1.05714,-2.36225 l 1.05714,-1.14686 -0.61344,-1.21171 c -0.3374,-0.66644 -0.61281,-1.39204 -0.61203,-1.61244 0.004,-1.06155 0.60029,-2.28483 1.64601,-3.37532 l 1.15055,-1.19981 -0.99976,-0.99975 c -1.4506,-1.45061 -1.99108,-3.3019 -1.61129,-5.51909 0.35348,-2.06362 1.2187,-3.22518 3.13402,-4.20741 1.74756,-0.89622 3.90984,-1.07576 9.93307,-0.82484 l 4.49386,0.18722 v 1.14644 1.14642 l -1.55465,-0.17588 c -1.43837,-0.16274 -1.54012,-0.14148 -1.36033,0.28417 0.78868,1.86715 0.92966,2.58639 0.79633,4.06251 -0.23167,2.56499 -1.40273,4.25505 -3.58715,5.17692 -0.41773,0.17629 -2.24158,0.38379 -4.05302,0.46109 l -3.29352,0.14057 -0.34223,0.71593 c -0.44318,0.9271 -0.19404,1.90031 0.53122,2.07504 0.31163,0.0751 2.51288,0.23223 4.89165,0.34924 4.90102,0.24107 5.84511,0.52248 6.8507,2.04204 1.94189,2.93439 0.27722,6.95305 -3.44274,8.31104 -1.60544,0.58607 -5.0533,0.81952 -8.40274,0.56893 z m 6.24965,-2.16374 c 1.2621,-0.5989 1.76126,-1.28183 1.76126,-2.40966 0,-0.69115 -0.17316,-1.16578 -0.57012,-1.56275 -0.51173,-0.51173 -0.8685,-0.57958 -3.48431,-0.66261 -3.77942,-0.11998 -4.57361,0.0331 -5.0609,0.97541 -0.83502,1.61475 -0.28498,3.10354 1.39398,3.77303 1.04694,0.41748 4.99984,0.34225 5.96009,-0.11342 z m -1.41238,-14.34847 c 0.8242,-0.88468 1.10892,-2.14715 0.96332,-4.27148 -0.19889,-2.9017 -0.9582,-4.05403 -2.67135,-4.05403 -1.71509,0 -2.5823,1.54686 -2.58486,4.61062 -0.001,1.88384 0.27717,2.8424 1.07384,3.69285 0.73534,0.785 2.49701,0.79706 3.21905,0.022 z"
   id="path866"
   inkscape:connector-curvature="0"
   inkscape:export-filename="C:\Users\Lukas Pezenka\Desktop\path952.png"
   inkscape:export-xdpi="299"
   inkscape:export-ydpi="299" /><path
   style="fill:#999999;fill-opacity:1;stroke:#999999;stroke-width:0.41972;stroke-miterlimit:4;stroke-dasharray:none;stroke-dashoffset:0"
   d="m 353.59697,220.60596 c 0,-0.24785 0.32451,-0.73538 0.72113,-1.0834 0.71444,-0.62692 0.7225,-0.66677 0.87027,-4.30327 0.082,-2.01878 0.0713,-5.21076 -0.0239,-7.09331 l -0.17303,-3.4228 -0.81852,-0.38032 c -0.53835,-0.25014 -0.8204,-0.56302 -0.82401,-0.91411 -0.005,-0.4748 0.18369,-0.55167 1.70592,-0.69544 0.94127,-0.0889 2.59562,-0.16244 3.67634,-0.16343 l 1.96495,-0.002 v 7.69517 c 0,7.31577 0.16319,9.29208 0.76731,9.29208 0.34125,0 1.00747,0.76645 1.00747,1.15904 0,0.30011 -0.76062,0.36221 -4.43697,0.36221 -4.08263,0 -4.43697,-0.036 -4.43697,-0.45063 z"
   id="path868"
   inkscape:connector-curvature="0"
   inkscape:export-filename="C:\Users\Lukas Pezenka\Desktop\path952.png"
   inkscape:export-xdpi="299"
   inkscape:export-ydpi="299" /><path
   style="fill:#999999;fill-opacity:1;stroke:#999999;stroke-width:0.41972;stroke-miterlimit:4;stroke-dasharray:none;stroke-dashoffset:0"
   d="m 355.37175,197.47726 v -2.28187 h 2.53542 2.5354 v 2.28187 2.28187 h -2.5354 -2.53542 z"
   id="path870"
   inkscape:connector-curvature="0"
   inkscape:export-filename="C:\Users\Lukas Pezenka\Desktop\path952.png"
   inkscape:export-xdpi="299"
   inkscape:export-ydpi="299" /><path
   style="fill:#999999;fill-opacity:1;stroke:#999999;stroke-width:0.41972;stroke-miterlimit:4;stroke-dasharray:none;stroke-dashoffset:0"
   d="m 365.5134,220.63134 c 0,-0.23387 0.3708,-0.73477 0.82401,-1.11309 l 0.82401,-0.68786 0.0904,-5.12869 c 0.0497,-2.82079 0.0105,-5.98104 -0.0871,-7.02279 -0.16979,-1.8118 -0.21502,-1.91622 -1.04115,-2.40365 -0.475,-0.28027 -0.86364,-0.70998 -0.86364,-0.95494 0,-0.36485 0.30941,-0.47459 1.7114,-0.60701 0.94127,-0.0889 2.59956,-0.16244 3.68508,-0.16343 l 1.97367,-0.002 -0.16816,1.2677 c -0.20038,1.51053 0.0327,1.6019 1.38191,0.54183 1.94738,-1.53004 3.73289,-2.03519 5.99468,-1.69602 1.48335,0.22244 3.05541,1.55672 3.40845,2.89291 0.13419,0.50791 0.32414,3.66171 0.42211,7.00845 l 0.17811,6.08498 0.84802,0.77863 c 0.46641,0.42825 0.84801,0.9702 0.84801,1.20433 0,0.38234 -0.45179,0.42569 -4.43696,0.42569 -3.98327,0 -4.43698,-0.0435 -4.43698,-0.42524 0,-0.23388 0.37081,-0.73486 0.82402,-1.11328 l 0.82401,-0.68804 v -5.79572 c 0,-5.06412 -0.0566,-5.89927 -0.44831,-6.61605 -0.83763,-1.53273 -2.87582,-1.43288 -4.36348,0.21378 l -0.92794,1.02712 0.0809,5.58598 0.0809,5.58599 0.82401,0.6875 c 0.4532,0.37812 0.82401,0.87884 0.82401,1.11272 0,0.38175 -0.4537,0.42524 -4.43697,0.42524 -3.98326,0 -4.43697,-0.0435 -4.43697,-0.42524 z"
   id="path872"
   inkscape:connector-curvature="0"
   inkscape:export-filename="C:\Users\Lukas Pezenka\Desktop\path952.png"
   inkscape:export-xdpi="299"
   inkscape:export-ydpi="299" /><path
   style="fill:#999999;fill-opacity:1;stroke:#999999;stroke-width:0.41972;stroke-miterlimit:4;stroke-dasharray:none;stroke-dashoffset:0"
   d="m 393.74075,220.8568 c -3.6755,-1.31507 -5.41336,-4.66633 -5.09188,-9.81914 0.22162,-3.55253 1.87952,-6.26894 4.65477,-7.62675 1.83773,-0.89911 5.1463,-1.12685 7.29519,-0.50215 2.79116,0.81141 4.62247,3.5368 4.9112,7.30893 l 0.13099,1.71141 H 399.77551 393.91 v 0.84137 c 0,1.11992 0.70104,3.43222 1.29276,4.26399 1.33733,1.8799 4.99955,1.94745 7.37445,0.13603 1.09303,-0.8337 1.23641,-0.83694 1.98065,-0.0447 l 0.59458,0.63292 -0.99409,0.87515 c -0.54676,0.48134 -1.67476,1.24318 -2.50669,1.693 -1.36374,0.73735 -1.76295,0.82673 -4.05666,0.90829 -2.0039,0.0713 -2.82225,-0.009 -3.85425,-0.37831 z m 6.39564,-12.28712 c -0.21616,-1.92832 -0.91225,-3.59168 -1.67358,-3.99912 -0.76628,-0.4101 -2.20991,-0.13988 -2.94573,0.55138 -0.6892,0.64748 -1.35354,2.64225 -1.35354,4.06422 v 0.96815 h 3.07524 3.07524 z"
   id="path874"
   inkscape:connector-curvature="0"
   inkscape:export-filename="C:\Users\Lukas Pezenka\Desktop\path952.png"
   inkscape:export-xdpi="299"
   inkscape:export-ydpi="299" /><path
   style="fill:#999999;fill-opacity:1;stroke:#999999;stroke-width:0.41972;stroke-miterlimit:4;stroke-dasharray:none;stroke-dashoffset:0"
   d="m 414.02404,220.85498 c -3.78843,-1.3502 -5.36158,-4.31644 -5.10211,-9.62025 0.14701,-3.00514 0.87826,-4.7822 2.63359,-6.40021 1.91443,-1.76466 3.06929,-2.15967 6.31411,-2.15967 2.61677,0 2.87267,0.0463 4.14489,0.75106 2.17543,1.20496 3.45209,3.54625 3.76585,6.90615 l 0.14914,1.59704 h -5.90334 -5.90331 l 0.13861,1.52855 c 0.163,1.79756 1.03575,3.68506 2.04212,4.41648 0.57727,0.41956 1.10064,0.52027 2.70385,0.52027 1.91672,0 2.0426,-0.0376 3.50983,-1.05013 l 1.52179,-1.05013 0.66378,0.69283 0.66378,0.69284 -1.16867,1.07724 c -1.86909,1.72287 -3.60276,2.39026 -6.45507,2.48493 -1.85193,0.0614 -2.71149,-0.028 -3.71884,-0.387 z m 6.40132,-12.03176 c -0.41454,-3.21216 -0.99213,-4.20437 -2.57071,-4.4161 -1.82435,-0.2447 -3.127,1.42947 -3.53472,4.54287 l -0.15771,1.20432 h 3.21747 3.21745 z"
   id="path876"
   inkscape:connector-curvature="0"
   inkscape:export-filename="C:\Users\Lukas Pezenka\Desktop\path952.png"
   inkscape:export-xdpi="299"
   inkscape:export-ydpi="299" /><path
   style="fill:#999999;fill-opacity:1;stroke:#999999;stroke-width:0.41972;stroke-miterlimit:4;stroke-dasharray:none;stroke-dashoffset:0"
   d="m 428.89868,220.63134 c 0,-0.23387 0.3708,-0.73465 0.824,-1.11284 l 0.82401,-0.6876 v -6.9341 -6.93409 l -0.95079,-0.61595 c -1.49838,-0.97069 -1.27948,-1.44077 0.76064,-1.63345 0.94126,-0.0889 2.60876,-0.16244 3.70556,-0.16343 l 1.99415,-0.002 -0.17423,1.39447 c -0.0958,0.76696 -0.0955,1.39448 0,1.39448 0.0962,0 0.58185,-0.35729 1.07922,-0.79397 1.5483,-1.35945 3.22824,-1.9897 5.31101,-1.9925 l 1.83817,-0.003 v 2.53541 2.53541 h -1.63093 c -1.35571,0 -1.6557,-0.078 -1.77768,-0.46238 -0.53802,-1.69516 -2.24638,-2.04665 -3.56047,-0.73255 -0.8305,0.83049 -0.83407,0.84485 -1.02294,4.11943 -0.18722,3.24598 -0.045,7.47444 0.2799,8.32108 0.092,0.23984 0.4958,0.60592 0.89723,0.81351 0.43026,0.2225 0.7299,0.58295 0.7299,0.87802 0,0.47986 -0.1888,0.50057 -4.56374,0.50057 -4.10189,0 -4.56373,-0.043 -4.56373,-0.42523 z"
   id="path878"
   inkscape:connector-curvature="0"
   inkscape:export-filename="C:\Users\Lukas Pezenka\Desktop\path952.png"
   inkscape:export-xdpi="299"
   inkscape:export-ydpi="299" /><path
   style="fill:#999999;fill-opacity:1;stroke:#999999;stroke-width:0.0370984;stroke-miterlimit:4;stroke-dasharray:none;stroke-dashoffset:0"
   d="m 227.78444,191.62503 c -0.26019,-0.0467 -0.29824,-0.0655 -0.33476,-0.16527 -0.13551,-0.36999 -0.16859,-2.00631 -0.1691,-8.36329 l -3.5e-4,-4.59548 0.29865,-0.0714 c 0.24986,-0.0598 0.34264,-0.0714 0.56788,-0.0714 0.35765,0 0.5925,0.0559 0.69446,0.16534 0.15526,0.16663 0.17272,0.39672 0.22435,2.95587 0.0318,1.57703 0.0447,1.94255 0.0684,1.93347 0.016,-0.006 0.21818,-0.13929 0.44913,-0.29583 0.7086,-0.48027 1.15758,-0.6551 1.86536,-0.72636 1.15503,-0.11628 2.36468,0.42348 2.79403,1.24672 0.3547,0.6801 0.47474,1.6411 0.54423,4.35712 0.0561,2.19354 0.0745,3.29679 0.055,3.31498 -0.0503,0.0471 -0.55796,0.25284 -0.69662,0.28223 -0.2427,0.0515 -0.47526,0.0415 -0.76559,-0.0325 -0.13961,-0.0356 -0.25688,-0.0682 -0.26058,-0.0723 -0.003,-0.004 -0.0183,-0.67318 -0.0325,-1.48666 -0.0757,-4.34249 -0.10987,-4.86353 -0.34883,-5.31826 -0.2083,-0.39639 -0.56962,-0.7018 -0.9464,-0.79994 -0.18391,-0.0479 -0.52229,-0.0429 -0.73215,0.0107 -0.33892,0.0867 -0.73646,0.31022 -1.10092,0.61904 -0.0986,0.0836 -0.3482,0.31833 -0.55465,0.52173 l -0.37536,0.36981 -0.001,1.37963 c -0.002,1.82655 -0.0348,3.9743 -0.065,4.22572 -0.0316,0.26253 -0.0806,0.42903 -0.14519,0.49366 -0.0861,0.0861 -0.26091,0.12482 -0.60646,0.13428 -0.17256,0.005 -0.36417,-5.4e-4 -0.4258,-0.0115 z"
   id="path880"
   inkscape:connector-curvature="0"
   inkscape:export-filename="C:\Users\Lukas Pezenka\Desktop\path952.png"
   inkscape:export-xdpi="299"
   inkscape:export-ydpi="299" /><path
   style="fill:#999999;fill-opacity:1;stroke:#999999;stroke-width:0.0370984;stroke-miterlimit:4;stroke-dasharray:none;stroke-dashoffset:0"
   d="m 220.96058,191.6343 c -0.0308,-0.005 -0.12016,-0.0264 -0.19855,-0.0465 -0.12343,-0.0316 -0.1464,-0.0458 -0.17145,-0.10615 -0.13475,-0.32452 -0.16692,-1.64359 -0.16745,-6.86553 l -3.6e-4,-3.86014 h -1.84882 -1.84884 v -0.69471 -0.69472 h 4.56045 4.56046 v 0.69472 0.69471 h -1.84879 -1.84879 l -0.005,5.35041 -0.005,5.3504 -0.33592,0.0846 c -0.32415,0.0816 -0.68199,0.12116 -0.84061,0.0929 z"
   id="path882"
   inkscape:connector-curvature="0"
   inkscape:export-filename="C:\Users\Lukas Pezenka\Desktop\path952.png"
   inkscape:export-xdpi="299"
   inkscape:export-ydpi="299" /><path
   style="fill:#999999;fill-opacity:1;stroke:#999999;stroke-width:0.0370984;stroke-miterlimit:4;stroke-dasharray:none;stroke-dashoffset:0"
   d="m 239.9905,191.62314 c -0.24367,-0.0377 -0.55572,-0.15205 -0.90811,-0.33262 -1.02744,-0.52647 -1.26379,-0.76657 -1.75115,-1.77896 -0.33505,-0.69601 -0.38515,-0.96002 -0.40691,-2.14456 -0.026,-1.4121 0.0441,-1.90333 0.36892,-2.58837 0.43528,-0.91789 0.82279,-1.42537 1.37359,-1.7989 0.29554,-0.20042 0.78317,-0.39084 1.21056,-0.47274 0.43606,-0.0835 0.68781,-0.10353 1.29706,-0.10293 0.87607,6.7e-4 1.23452,0.0676 1.65397,0.30803 0.78406,0.44939 1.46763,1.28887 1.67232,2.05376 0.14199,0.53054 0.21576,1.05738 0.21675,1.54788 0.001,0.50793 -0.067,0.83833 -0.19303,0.93746 -0.15976,0.12567 -1.27013,0.18249 -3.5741,0.18291 -0.8936,1.6e-4 -1.76979,0.007 -1.94707,0.015 l -0.32234,0.0148 0.012,0.37174 c 0.01,0.29573 0.0235,0.41563 0.0679,0.58631 0.18454,0.70884 0.62944,1.31666 1.14733,1.56749 0.40913,0.19815 0.84873,0.27787 1.53508,0.27838 0.70931,5.3e-4 1.0403,-0.0539 1.77764,-0.29216 0.24434,-0.079 0.53039,-0.16048 0.63569,-0.18118 0.16908,-0.0332 0.20219,-0.0339 0.28336,-0.005 0.16475,0.0574 0.24844,0.26259 0.24612,0.60348 -0.002,0.24998 -0.0664,0.39988 -0.25155,0.58326 -0.0812,0.0805 -0.20872,0.17829 -0.28329,0.21742 -0.3896,0.20448 -1.04291,0.34103 -1.95976,0.40959 -0.45042,0.0337 -1.72717,0.0475 -1.90109,0.0205 z m 1.95711,-5.57808 c 0.66829,-0.0229 0.91443,-0.0493 1.06205,-0.11417 l 0.0984,-0.0433 -0.0136,-0.13039 c -0.0462,-0.44198 -0.64374,-1.55157 -0.95486,-1.77311 -0.0913,-0.065 -0.28107,-0.12765 -0.52557,-0.17351 -0.29111,-0.0546 -1.01732,-0.055 -1.23129,-6.6e-4 -0.50693,0.12867 -0.953,0.44247 -1.24581,0.8764 -0.0653,0.0968 -0.18911,0.32042 -0.27515,0.49702 -0.12363,0.25376 -0.15901,0.34943 -0.16869,0.45609 -0.0196,0.21661 0.0501,0.28517 0.35715,0.35095 0.31296,0.0671 1.74475,0.0941 2.89737,0.0547 z"
   id="path884"
   inkscape:connector-curvature="0"
   inkscape:export-filename="C:\Users\Lukas Pezenka\Desktop\path952.png"
   inkscape:export-xdpi="299"
   inkscape:export-ydpi="299" /><path
   style="fill:#999999;fill-opacity:1;stroke:#999999;stroke-width:0.148393;stroke-miterlimit:4;stroke-dasharray:none;stroke-dashoffset:0"
   d="m 119.01911,243.72411 c -1.40284,-0.30934 -2.15611,-0.82611 -2.13927,-1.46761 0.0113,-0.43489 0.17088,-0.73018 0.39435,-0.73018 0.0968,0 0.54917,0.17038 1.00529,0.37863 0.81125,0.37041 0.85359,0.37933 1.94975,0.41104 l 1.12053,0.0324 0.36545,-0.2659 c 1.18003,-0.85858 1.2466,-2.21756 0.14778,-3.01728 -0.23299,-0.16957 -0.97188,-0.59655 -1.64201,-0.94884 -1.39918,-0.73554 -2.10006,-1.25586 -2.49514,-1.85231 -0.37697,-0.56911 -0.48134,-1.01605 -0.43548,-1.86416 0.0878,-1.62282 0.96656,-2.59046 2.64977,-2.91777 1.27396,-0.24772 2.92582,0.0554 3.51548,0.64505 0.32637,0.32638 0.41165,0.62217 0.30341,1.05247 -0.0715,0.28406 -0.1129,0.32161 -0.3367,0.30559 -0.14039,-0.0101 -0.56322,-0.1478 -0.93979,-0.30612 -0.90784,-0.38176 -1.93298,-0.45835 -2.54007,-0.18979 -0.44633,0.19743 -0.7998,0.60646 -0.96209,1.11337 -0.092,0.28739 -0.0802,0.3897 0.0911,0.78774 0.25728,0.59809 0.72811,1.00141 1.92978,1.65301 2.67993,1.45323 3.30559,2.10414 3.41756,3.55534 0.0777,1.00808 -0.36659,2.11889 -1.10801,2.76981 -0.95884,0.84192 -2.74164,1.1973 -4.29165,0.8555 z"
   id="path886"
   inkscape:connector-curvature="0"
   inkscape:export-filename="C:\Users\Lukas Pezenka\Desktop\path952.png"
   inkscape:export-xdpi="299"
   inkscape:export-ydpi="299" /><path
   style="fill:#999999;fill-opacity:1;stroke:#999999;stroke-width:0.148393;stroke-miterlimit:4;stroke-dasharray:none;stroke-dashoffset:0"
   d="m 126.92478,247.11088 c -0.0891,-0.0231 -0.20627,-0.14951 -0.26042,-0.28093 -0.0666,-0.16156 -0.11186,-2.14358 -0.13981,-6.11953 l -0.0413,-5.88059 0.4087,-0.1029 c 0.53904,-0.13574 0.56827,-0.13288 0.77749,0.0764 0.13945,0.13944 0.17929,0.2988 0.17929,0.71712 0,0.29581 0.0241,0.53785 0.0534,0.53785 0.0294,0 0.24119,-0.16584 0.47062,-0.36854 0.91067,-0.80456 1.90287,-1.14577 3.00323,-1.03276 0.67129,0.0689 1.56339,0.48521 1.90469,0.88876 1.15575,1.36655 1.35895,4.56924 0.41263,6.50381 -0.4796,0.98045 -1.56775,1.68271 -2.76406,1.78383 -0.72676,0.0614 -1.31595,-0.0906 -2.01315,-0.51932 -0.50791,-0.31235 -0.57953,-0.33446 -0.63441,-0.19592 -0.034,0.0859 -0.065,0.84193 -0.0687,1.68006 -0.004,0.83814 -0.047,1.66875 -0.0962,1.84578 -0.12474,0.44906 -0.57717,0.62628 -1.19205,0.46692 z m 4.22294,-4.76879 c 0.85975,-0.43862 1.24411,-1.17711 1.40428,-2.69822 0.0602,-0.57211 -0.0669,-1.69183 -0.25358,-2.23378 -0.32432,-0.94135 -1.04098,-1.50548 -1.80336,-1.41955 -0.55627,0.0627 -1.10248,0.3547 -1.73613,0.92812 l -0.55168,0.49924 5.3e-4,1.5836 c 3.6e-4,0.87098 0.0418,1.73216 0.0922,1.91373 0.17273,0.6219 1.52482,1.59713 2.2143,1.59713 0.16484,0 0.44991,-0.0766 0.63347,-0.17027 z"
   id="path888"
   inkscape:connector-curvature="0"
   inkscape:export-filename="C:\Users\Lukas Pezenka\Desktop\path952.png"
   inkscape:export-xdpi="299"
   inkscape:export-ydpi="299" /><path
   style="fill:#999999;fill-opacity:1;stroke:#999999;stroke-width:0.148393;stroke-miterlimit:4;stroke-dasharray:none;stroke-dashoffset:0"
   d="m 139.02634,243.759 c -0.64298,-0.094 -1.48824,-0.53389 -1.89838,-0.98787 -0.72025,-0.79722 -1.02911,-1.84303 -1.02948,-3.48582 -5.3e-4,-2.24966 0.66947,-3.50605 2.27659,-4.26927 0.78296,-0.37182 1.47814,-0.45203 2.75231,-0.31754 1.02005,0.10767 1.55805,0.34431 2.16685,0.95312 0.84594,0.84595 1.16933,1.97226 1.12251,3.9097 l -0.0294,1.21725 -0.38151,0.76958 c -0.21417,0.43203 -0.55921,0.95242 -0.78663,1.18641 -0.88086,0.90635 -2.42334,1.28322 -4.19286,1.02444 z m 1.97974,-1.38355 c 0.67287,-0.19982 1.30465,-0.84031 1.50347,-1.5242 0.2046,-0.70385 0.15019,-3.03892 -0.0835,-3.58163 -0.46694,-1.08449 -1.81299,-1.58606 -3.0266,-1.12776 -0.62523,0.2361 -1.26599,0.88364 -1.43692,1.45211 -0.16246,0.54034 -0.15765,2.6786 0.007,3.24686 0.18244,0.62845 0.80948,1.27892 1.44243,1.49633 0.60367,0.20735 0.993,0.21671 1.59379,0.0383 z"
   id="path890"
   inkscape:connector-curvature="0"
   inkscape:export-filename="C:\Users\Lukas Pezenka\Desktop\path952.png"
   inkscape:export-xdpi="299"
   inkscape:export-ydpi="299" /><path
   style="fill:#999999;fill-opacity:1;stroke:#999999;stroke-width:0.148393;stroke-miterlimit:4;stroke-dasharray:none;stroke-dashoffset:0"
   d="m 146.96449,243.70865 -0.20169,-0.0435 v -4.42925 -4.42926 l 0.2465,-0.054 c 0.13559,-0.0297 0.29581,-0.0691 0.35604,-0.0876 0.19841,-0.0608 0.62499,0.14308 0.72011,0.34415 0.0514,0.10857 0.12937,0.33858 0.17332,0.51114 l 0.0799,0.31374 0.49587,-0.46852 c 0.59619,-0.5633 0.99281,-0.74331 1.62301,-0.73657 1.01127,0.0108 1.42258,0.36903 1.26811,1.1044 l -0.0777,0.36961 -0.85151,0.0449 c -1.08264,0.0571 -1.32012,0.19114 -1.99271,1.12457 l -0.51371,0.71295 -0.009,2.28583 c -0.009,2.20381 -0.0701,3.24321 -0.19825,3.3714 -0.0775,0.0774 -0.85234,0.12312 -1.11809,0.0659 z"
   id="path892"
   inkscape:connector-curvature="0"
   inkscape:export-filename="C:\Users\Lukas Pezenka\Desktop\path952.png"
   inkscape:export-xdpi="299"
   inkscape:export-ydpi="299" /><path
   style="fill:#999999;fill-opacity:1;stroke:#999999;stroke-width:0.148393;stroke-miterlimit:4;stroke-dasharray:none;stroke-dashoffset:0"
   d="m 155.59236,243.8129 c -0.0493,-0.0164 -0.20158,-0.0546 -0.33841,-0.0848 -0.35777,-0.079 -0.96123,-0.65766 -1.16527,-1.11736 -0.15486,-0.34891 -0.18391,-0.71262 -0.25062,-3.13742 -0.0415,-1.5085 -0.0772,-2.87383 -0.0794,-3.03406 l -0.004,-0.29133 h -0.48308 c -0.64937,0 -0.8855,-0.18942 -0.89749,-0.71995 -0.008,-0.33177 0.0254,-0.40917 0.21525,-0.50679 0.12325,-0.0634 0.4297,-0.11582 0.681,-0.11655 l 0.4569,-0.001 0.0564,-1.05294 c 0.065,-1.21173 0.1062,-1.2777 0.79897,-1.2777 0.34249,0 0.482,0.0468 0.65517,0.22002 0.20551,0.20551 0.22003,0.28178 0.22003,1.15588 v 0.93586 l 1.06194,0.0319 c 1.21255,0.0363 1.35835,0.10167 1.35835,0.60835 0,0.61486 -0.11343,0.67458 -1.34588,0.70858 l -1.09178,0.0302 0.035,2.70391 c 0.0463,3.57385 0.0697,3.63036 1.46075,3.52343 0.83663,-0.0643 0.9419,-0.01 0.9419,0.48611 0,0.44867 -0.26342,0.75569 -0.75449,0.87934 -0.36763,0.0926 -1.3184,0.12784 -1.53134,0.0568 z"
   id="path894"
   inkscape:connector-curvature="0"
   inkscape:export-filename="C:\Users\Lukas Pezenka\Desktop\path952.png"
   inkscape:export-xdpi="299"
   inkscape:export-ydpi="299" /><path
   style="fill:#999999;fill-opacity:1;stroke:#999999;stroke-width:0.148393;stroke-miterlimit:4;stroke-dasharray:none;stroke-dashoffset:0"
   d="m 160.65704,243.73996 c -1.12902,-0.25859 -1.56748,-0.72803 -1.3814,-1.47899 0.10919,-0.44065 0.28095,-0.45609 1.0555,-0.0949 0.84605,0.39453 1.8993,0.46938 2.49739,0.17747 0.45715,-0.22312 0.81686,-0.71439 0.80587,-1.10065 -0.0123,-0.43107 -0.37333,-0.72339 -1.81378,-1.4684 -2.03726,-1.05369 -2.33213,-1.3796 -2.32497,-2.56973 0.007,-1.14788 0.36719,-1.77409 1.27388,-2.21415 0.95623,-0.46411 2.57656,-0.46541 3.48335,-0.003 0.41098,0.20966 0.52762,0.40375 0.52762,0.87796 0,0.66026 -0.007,0.66275 -0.95279,0.32052 -1.24073,-0.44912 -2.01413,-0.3963 -2.58715,0.17672 -0.1654,0.16539 -0.22495,0.32015 -0.22495,0.58447 0,0.57203 0.36077,0.89787 1.76924,1.59793 1.72446,0.85711 2.27673,1.40458 2.41194,2.39099 0.16707,1.21894 -0.45596,2.1571 -1.77187,2.66811 -0.59688,0.23178 -2.03915,0.30236 -2.76788,0.13547 z"
   id="path896"
   inkscape:connector-curvature="0"
   inkscape:export-filename="C:\Users\Lukas Pezenka\Desktop\path952.png"
   inkscape:export-xdpi="299"
   inkscape:export-ydpi="299" /><path
   style="fill:#999999;fill-opacity:1;stroke:#999999;stroke-width:0.148393;stroke-miterlimit:4;stroke-dasharray:none;stroke-dashoffset:0"
   d="m 173.0274,243.76068 c -0.74308,-0.13197 -1.57488,-0.55313 -1.7903,-0.90645 -0.23011,-0.37741 -0.25614,-1.21537 -0.0403,-1.29818 0.0778,-0.0298 0.57194,0.12138 1.09808,0.33607 0.95154,0.38826 0.96267,0.39037 2.08319,0.39325 1.04579,0.003 1.14917,-0.0126 1.44233,-0.21313 0.54093,-0.37003 0.74134,-0.75543 0.77883,-1.49779 0.0278,-0.55083 0.003,-0.70385 -0.16105,-0.96825 -0.22531,-0.36455 -0.97273,-0.8742 -2.42909,-1.65633 -1.29483,-0.69536 -1.84324,-1.10571 -2.213,-1.65585 -0.38169,-0.56793 -0.50913,-1.03217 -0.50765,-1.84929 0.001,-0.55888 0.0447,-0.75987 0.25895,-1.19137 0.32445,-0.65344 0.87511,-1.16469 1.64322,-1.52555 0.51926,-0.24397 0.7178,-0.28578 1.49517,-0.31491 1.16395,-0.0436 2.49033,0.29102 2.94135,0.74203 0.1531,0.1531 0.21438,0.94526 0.0968,1.25161 -0.0768,0.20009 -0.15467,0.18601 -1.24611,-0.22528 -0.90286,-0.34023 -1.02809,-0.36481 -1.71272,-0.33615 -0.57316,0.024 -0.79408,0.0723 -0.98611,0.21574 -0.58272,0.43518 -0.82618,1.09786 -0.65422,1.78077 0.16661,0.66166 0.74972,1.14671 2.32293,1.93231 1.92015,0.95885 2.58691,1.57453 2.90726,2.68451 0.52292,1.81195 -0.63143,3.75262 -2.4826,4.17366 -0.79467,0.18074 -2.19491,0.24404 -2.84495,0.12858 z"
   id="path898"
   inkscape:connector-curvature="0"
   inkscape:export-filename="C:\Users\Lukas Pezenka\Desktop\path952.png"
   inkscape:export-xdpi="299"
   inkscape:export-ydpi="299" /><path
   style="fill:#999999;fill-opacity:1;stroke:#999999;stroke-width:0.148393;stroke-miterlimit:4;stroke-dasharray:none;stroke-dashoffset:0"
   d="m 182.3798,243.6971 c -0.89289,-0.32025 -1.33371,-0.80585 -1.60908,-1.77255 -0.20752,-0.72855 -0.30441,-7.00853 -0.11003,-7.13172 0.1971,-0.12491 0.96093,-0.0896 1.24556,0.0576 l 0.26447,0.13676 0.003,2.08183 c 0.003,2.67205 0.10959,4.17153 0.32638,4.61414 0.3213,0.65598 1.32627,0.93765 2.13692,0.59894 0.49246,-0.20577 1.27921,-0.98453 1.38714,-1.37305 0.0516,-0.18571 0.0902,-1.55436 0.0905,-3.20742 l 5.4e-4,-2.88347 0.43255,-0.0928 c 0.23791,-0.0511 0.51019,-0.077 0.60507,-0.0576 0.0949,0.0193 0.28345,0.0585 0.41903,0.087 l 0.24651,0.0519 v 4.42429 4.42428 l -0.28012,0.056 c -0.37618,0.0752 -0.8164,0.0685 -0.94683,-0.0144 -0.13807,-0.0878 -0.29694,-0.50886 -0.29694,-0.78699 0,-0.12005 -0.0238,-0.21827 -0.053,-0.21827 -0.0291,0 -0.2852,0.1629 -0.56905,0.36201 -0.69488,0.48743 -1.32456,0.71208 -2.14487,0.76525 -0.52566,0.0341 -0.79161,0.006 -1.14747,-0.1218 z"
   id="path900"
   inkscape:connector-curvature="0"
   inkscape:export-filename="C:\Users\Lukas Pezenka\Desktop\path952.png"
   inkscape:export-xdpi="299"
   inkscape:export-ydpi="299" /><path
   style="fill:#999999;fill-opacity:1;stroke:#999999;stroke-width:0.148393;stroke-miterlimit:4;stroke-dasharray:none;stroke-dashoffset:0"
   d="m 192.60523,243.73083 c -0.53686,-0.13033 -0.83592,-0.32834 -1.38918,-0.91982 -0.76317,-0.81589 -1.15387,-1.99453 -1.15387,-3.48089 0,-1.91964 0.72766,-3.51664 1.92099,-4.21598 0.93894,-0.55024 2.61246,-0.63468 3.60271,-0.18177 0.98212,0.44919 1.32289,0.98492 1.054,1.65695 -0.082,0.20504 -0.17436,0.36104 -0.20517,0.34666 -0.0308,-0.0144 -0.44671,-0.22342 -0.92423,-0.46454 -1.31494,-0.66395 -2.03128,-0.65949 -2.78041,0.0173 -0.65722,0.59377 -0.96637,1.47568 -0.96458,2.75174 0.004,2.81027 1.47153,3.84583 3.81165,2.68955 1.00645,-0.49729 1.32149,-0.38072 1.16892,0.43253 -0.20226,1.07812 -2.37651,1.79656 -4.14083,1.36826 z"
   id="path902"
   inkscape:connector-curvature="0"
   inkscape:export-filename="C:\Users\Lukas Pezenka\Desktop\path952.png"
   inkscape:export-xdpi="299"
   inkscape:export-ydpi="299" /><path
   style="fill:#999999;fill-opacity:1;stroke:#999999;stroke-width:0.148393;stroke-miterlimit:4;stroke-dasharray:none;stroke-dashoffset:0"
   d="m 201.01936,243.76248 c -1.31581,-0.2597 -2.21078,-1.16204 -2.59713,-2.61851 -0.19086,-0.71951 -0.21381,-2.85454 -0.0383,-3.56183 0.34589,-1.39381 1.14199,-2.35264 2.23523,-2.69216 0.33006,-0.1025 0.92282,-0.2094 1.31723,-0.23754 1.66728,-0.11899 2.91202,0.58237 2.91297,1.64135 5.3e-4,0.67289 -0.24324,0.70262 -1.18102,0.14399 -0.4655,-0.27729 -0.6337,-0.326 -1.24851,-0.3616 -0.87908,-0.0509 -1.36961,0.11392 -1.81876,0.61109 -0.5474,0.60591 -0.79327,2.04839 -0.59421,3.48624 0.22883,1.65298 0.9464,2.32413 2.38678,2.23242 0.53448,-0.034 0.74437,-0.11677 1.79009,-0.70566 0.53196,-0.29956 0.66597,-0.21025 0.66597,0.44384 0,0.4454 -0.0389,0.58009 -0.23537,0.81351 -0.58738,0.69805 -2.25005,1.0703 -3.59499,0.80486 z"
   id="path904"
   inkscape:connector-curvature="0"
   inkscape:export-filename="C:\Users\Lukas Pezenka\Desktop\path952.png"
   inkscape:export-xdpi="299"
   inkscape:export-ydpi="299" /><path
   style="fill:#999999;fill-opacity:1;stroke:#999999;stroke-width:0.148393;stroke-miterlimit:4;stroke-dasharray:none;stroke-dashoffset:0"
   d="m 209.34253,243.76215 c -1.08662,-0.19455 -1.99074,-0.92167 -2.54449,-2.04634 l -0.28998,-0.58894 v -1.7993 -1.79929 l 0.34206,-0.69223 c 0.40399,-0.81757 1.07991,-1.54729 1.71697,-1.85362 0.32977,-0.15857 0.70238,-0.23596 1.43425,-0.29791 1.24607,-0.10548 1.80785,-1.2e-4 2.54714,0.4777 1.02871,0.6649 1.56065,1.76508 1.57257,3.2525 0.006,0.77965 -6.6e-4,0.80873 -0.24655,0.99374 -0.24128,0.18177 -0.3761,0.19266 -2.91331,0.23541 -1.46318,0.0246 -2.71572,0.0805 -2.78342,0.12417 -0.33296,0.21462 0.19879,1.72828 0.77358,2.20207 0.73156,0.60302 2.02318,0.71838 3.5027,0.31284 1.04091,-0.28532 1.30398,-0.26924 1.34417,0.0822 0.10161,0.88853 -0.88525,1.35896 -3.03224,1.44546 -0.51767,0.0208 -1.15823,-6.7e-4 -1.42345,-0.0485 z m 3.17273,-5.84386 c -0.0868,-0.55797 -0.46593,-1.29142 -0.79877,-1.54528 -0.67801,-0.51714 -1.50961,-0.62255 -2.19031,-0.27762 -0.74751,0.37879 -1.18752,0.93349 -1.41044,1.77808 l -0.11239,0.42579 h 2.2856 2.28559 z"
   id="path906"
   inkscape:connector-curvature="0"
   inkscape:export-filename="C:\Users\Lukas Pezenka\Desktop\path952.png"
   inkscape:export-xdpi="299"
   inkscape:export-ydpi="299" /><path
   style="fill:#999999;fill-opacity:1;stroke:#999999;stroke-width:0.148393;stroke-miterlimit:4;stroke-dasharray:none;stroke-dashoffset:0"
   d="m 217.57864,243.79604 c -0.53435,-0.0871 -1.37405,-0.44126 -1.53689,-0.64828 -0.13477,-0.17134 -0.16824,-0.33422 -0.14783,-0.71976 0.023,-0.43479 0.0514,-0.50187 0.22282,-0.52626 0.10803,-0.0154 0.49125,0.10564 0.85158,0.26892 0.5969,0.27049 0.73225,0.29688 1.52256,0.29688 0.96645,0 1.18088,-0.0923 1.58177,-0.68055 0.46244,-0.67861 0.0521,-1.16141 -1.78871,-2.10436 -1.47256,-0.75433 -1.96255,-1.17616 -2.14411,-1.84585 -0.13771,-0.50801 -0.0521,-1.40582 0.17703,-1.85481 0.24075,-0.47191 0.82597,-0.95798 1.38644,-1.15154 0.62793,-0.21685 2.07995,-0.21719 2.70694,-5.3e-4 0.70273,0.24273 1.11143,0.774 0.9845,1.27974 -0.0708,0.28217 -0.2824,0.281 -1.16303,-0.007 -1.23229,-0.40226 -2.13365,-0.2542 -2.48927,0.40891 -0.42529,0.793 -0.11127,1.1652 1.81216,2.14782 1.61354,0.8243 1.96943,1.13823 2.15168,1.89788 0.11965,0.49877 0.0624,1.26334 -0.12899,1.7213 -0.30875,0.73892 -1.09274,1.29984 -2.06904,1.48032 -0.50945,0.0942 -1.46536,0.11237 -1.92961,0.0368 z"
   id="path908"
   inkscape:connector-curvature="0"
   inkscape:export-filename="C:\Users\Lukas Pezenka\Desktop\path952.png"
   inkscape:export-xdpi="299"
   inkscape:export-ydpi="299" /><path
   style="fill:#999999;fill-opacity:1;stroke:#999999;stroke-width:0.148393;stroke-miterlimit:4;stroke-dasharray:none;stroke-dashoffset:0"
   d="m 224.74817,243.73535 c -0.5842,-0.12589 -1.03275,-0.37073 -1.27528,-0.69612 -0.22001,-0.29521 -0.23447,-0.87621 -0.0256,-1.02892 0.16273,-0.119 0.20902,-0.10893 1.30259,0.28315 0.58554,0.20994 0.76655,0.23518 1.40265,0.19564 0.82393,-0.0512 1.22047,-0.22824 1.38137,-0.61669 0.11401,-0.27527 0.13388,-0.76632 0.0427,-1.05381 -0.0775,-0.24421 -0.63971,-0.61809 -1.48205,-0.9856 -1.37745,-0.601 -2.04956,-1.12083 -2.38866,-1.84748 -0.25817,-0.55323 -0.26636,-1.0552 -0.0276,-1.69323 0.23957,-0.64031 0.76206,-1.15842 1.4143,-1.40245 1.38553,-0.5184 3.44526,-0.17962 3.77698,0.62123 0.12674,0.30598 0.0494,0.80429 -0.13598,0.8754 -0.0676,0.026 -0.49754,-0.0776 -0.9554,-0.23016 -0.96004,-0.31984 -1.5843,-0.35446 -2.04356,-0.11336 -0.6188,0.32488 -0.79569,1.19975 -0.33062,1.63527 0.10866,0.10176 0.80264,0.49461 1.54216,0.87301 2.11404,1.0817 2.50136,1.57801 2.3079,2.95745 -0.1133,0.80786 -0.43709,1.36532 -1.02957,1.77255 -0.75243,0.51718 -2.26593,0.71489 -3.4762,0.45412 z"
   id="path910"
   inkscape:connector-curvature="0"
   inkscape:export-filename="C:\Users\Lukas Pezenka\Desktop\path952.png"
   inkscape:export-xdpi="299"
   inkscape:export-ydpi="299" /><path
   style="fill:#999999;fill-opacity:1;stroke:#999999;stroke-width:0.209859;stroke-miterlimit:4;stroke-dasharray:none;stroke-dashoffset:0"
   d="m 236.0833,243.36386 c -0.15727,-0.41365 -0.15998,-10.4577 -0.003,-11.1344 0.063,-0.27167 0.19001,-0.546 0.28221,-0.60963 0.0923,-0.0637 0.99369,-0.0889 2.0058,-0.056 2.82976,0.0917 3.9488,0.4996 4.65181,1.69559 0.32562,0.55394 0.35562,0.71198 0.35562,1.87271 0,1.16549 -0.03,1.32189 -0.37238,1.9399 -0.37596,0.67865 -1.16811,1.36332 -1.90948,1.6504 -0.47026,0.18211 -1.95053,0.39709 -2.75726,0.40046 l -0.60217,0.003 v 2.08266 c 0,2.39507 -0.0334,2.48108 -0.96297,2.48108 -0.48935,0 -0.58101,-0.0433 -0.68818,-0.32518 z m 3.76686,-5.77264 c 0.77917,-0.15245 1.22927,-0.47518 1.54588,-1.10839 0.33487,-0.66973 0.41049,-1.22343 0.25926,-1.89826 -0.25307,-1.12923 -0.92255,-1.5294 -2.74014,-1.63783 l -1.1807,-0.0704 v 2.50525 2.50526 l 0.72893,-0.0834 c 0.40091,-0.0459 1.02496,-0.14136 1.38677,-0.21216 z"
   id="path912"
   inkscape:connector-curvature="0"
   inkscape:export-filename="C:\Users\Lukas Pezenka\Desktop\path952.png"
   inkscape:export-xdpi="299"
   inkscape:export-ydpi="299" /><path
   style="fill:#999999;fill-opacity:1;stroke:#999999;stroke-width:0.209859;stroke-miterlimit:4;stroke-dasharray:none;stroke-dashoffset:0"
   d="m 248.3128,243.81366 c -0.83999,-0.11916 -1.7959,-0.54922 -2.29567,-1.03282 -0.22061,-0.21347 -0.56254,-0.73823 -0.75983,-1.16613 -0.3304,-0.71661 -0.35877,-0.89805 -0.35951,-2.29925 -6.6e-4,-1.47667 0.0118,-1.54632 0.42852,-2.37676 0.86315,-1.72004 1.98409,-2.32518 4.12105,-2.22477 1.30843,0.0615 1.92013,0.30498 2.68324,1.06809 0.80727,0.80727 0.99352,1.40608 1.00043,3.21651 0.005,1.21258 -0.0476,1.73853 -0.22264,2.2401 -0.42908,1.22984 -1.69432,2.30757 -2.94757,2.51073 -0.27505,0.0446 -0.61418,0.0978 -0.75363,0.11814 -0.13944,0.0204 -0.54192,-0.004 -0.89439,-0.0539 z m 1.99231,-1.59301 c 1.04602,-0.54092 1.57679,-2.82734 1.06016,-4.56701 -0.59577,-2.0062 -3.43018,-2.32216 -4.37345,-0.48751 -0.28994,0.56392 -0.32004,0.76579 -0.32004,2.14651 0,1.34038 0.0345,1.58877 0.28687,2.06099 0.31458,0.58881 0.70584,0.89926 1.33263,1.05741 0.5305,0.13386 1.55514,0.0268 2.01383,-0.21039 z"
   id="path914"
   inkscape:connector-curvature="0"
   inkscape:export-filename="C:\Users\Lukas Pezenka\Desktop\path952.png"
   inkscape:export-xdpi="299"
   inkscape:export-ydpi="299" /><path
   style="fill:#999999;fill-opacity:1;stroke:#999999;stroke-width:0.209859;stroke-miterlimit:4;stroke-dasharray:none;stroke-dashoffset:0"
   d="m 257.29115,243.60586 c -0.16489,-0.0667 -1.03807,-2.71945 -1.97555,-6.0018 -0.78595,-2.75177 -0.76502,-2.62952 -0.47659,-2.78389 0.33778,-0.18076 0.96572,-0.16581 1.11792,0.0266 0.12521,0.15832 0.57205,1.48915 1.54297,4.59544 0.54205,1.73418 0.68983,2.07269 0.81584,1.8688 0.0419,-0.0678 0.42252,-1.37168 0.84586,-2.89757 0.95613,-3.4463 1.04753,-3.64895 1.66916,-3.70063 0.3883,-0.0323 0.50499,0.018 0.68705,0.29581 0.12061,0.18409 0.61335,1.62643 1.09498,3.2052 0.48161,1.57879 0.92481,2.95741 0.98487,3.06362 0.15516,0.27438 0.34721,-0.23023 1.20636,-3.16971 0.39684,-1.35775 0.81645,-2.6683 0.93246,-2.91233 0.19799,-0.41647 0.24751,-0.44322 0.80706,-0.43591 0.32788,0.004 0.63505,0.0467 0.68261,0.0943 0.10022,0.10022 0.11185,0.0582 -1.30606,4.71523 -0.59441,1.95227 -1.16382,3.68038 -1.26537,3.84023 -0.16827,0.2649 -0.26397,0.28737 -1.08003,0.25354 l -0.89541,-0.0371 -0.81286,-2.77477 c -0.44707,-1.52613 -0.84829,-2.83209 -0.89157,-2.90213 -0.13657,-0.22097 -0.38223,0.42168 -1.05567,2.76162 -0.66356,2.30564 -0.81471,2.71472 -1.06471,2.88165 -0.15439,0.10308 -1.31726,0.11338 -1.56332,0.0138 z"
   id="path916"
   inkscape:connector-curvature="0"
   inkscape:export-filename="C:\Users\Lukas Pezenka\Desktop\path952.png"
   inkscape:export-xdpi="299"
   inkscape:export-ydpi="299" /><path
   style="fill:#999999;fill-opacity:1;stroke:#999999;stroke-width:0.209859;stroke-miterlimit:4;stroke-dasharray:none;stroke-dashoffset:0"
   d="m 271.20106,243.70521 c -0.64848,-0.21327 -1.09982,-0.51728 -1.66492,-1.12141 -0.80856,-0.86441 -0.92984,-1.29915 -0.92941,-3.33173 3.5e-4,-1.6237 0.0183,-1.74574 0.35142,-2.3815 0.45274,-0.86418 1.11234,-1.58943 1.70794,-1.87791 0.65402,-0.31679 3.24459,-0.34234 3.71056,-0.0366 1.05929,0.69506 1.71668,1.8439 1.84384,3.22227 0.12752,1.3823 0.14752,1.3732 -3.22538,1.46692 -1.5092,0.0419 -2.75826,0.0847 -2.7757,0.0951 -0.11752,0.0698 0.0137,0.93047 0.2066,1.35517 0.61173,1.34673 1.99552,1.74633 4.14433,1.19677 0.55021,-0.14073 1.07276,-0.22809 1.16121,-0.19415 0.27385,0.10509 0.18071,0.69723 -0.1592,1.01225 -0.17603,0.16314 -0.58962,0.36737 -0.91909,0.45384 -0.73027,0.19167 -3.01446,0.28497 -3.4522,0.14101 z m 3.42085,-5.75254 c -0.004,-0.62552 -0.42044,-1.41705 -0.90133,-1.71414 -0.42194,-0.26066 -0.92486,-0.34961 -1.72602,-0.30527 -0.5985,0.0331 -1.35392,0.76479 -1.67464,1.62202 -0.14244,0.38067 -0.25897,0.71853 -0.25897,0.75077 0,0.0323 1.02684,0.0586 2.28187,0.0586 h 2.28187 l -0.003,-0.412 z"
   id="path918"
   inkscape:connector-curvature="0"
   inkscape:export-filename="C:\Users\Lukas Pezenka\Desktop\path952.png"
   inkscape:export-xdpi="299"
   inkscape:export-ydpi="299" /><path
   style="fill:#999999;fill-opacity:1;stroke:#999999;stroke-width:0.209859;stroke-miterlimit:4;stroke-dasharray:none;stroke-dashoffset:0"
   d="m 278.70652,243.58379 c -0.13125,-0.0859 -0.15717,-0.9634 -0.12677,-4.29226 0.0414,-4.52836 0.0531,-4.6032 0.72562,-4.6032 0.46529,0 0.64368,0.21783 0.64368,0.78599 0,0.26494 0.0373,0.48172 0.0828,0.48172 0.0455,0 0.38442,-0.28523 0.75304,-0.63386 l 0.6702,-0.63385 h 0.94252 0.94253 l 0.0792,0.39616 c 0.0436,0.21789 0.0794,0.57443 0.0795,0.79232 l 1.7e-4,0.39616 -0.84257,-0.0433 c -1.03148,-0.0531 -1.28679,0.0711 -1.9485,0.94755 l -0.5055,0.66952 -0.0111,2.25562 c -0.006,1.24059 -0.0489,2.54085 -0.0951,2.88947 l -0.084,0.63385 -0.57047,0.033 c -0.31375,0.0182 -0.6447,-0.0156 -0.73544,-0.0749 z"
   id="path920"
   inkscape:connector-curvature="0"
   inkscape:export-filename="C:\Users\Lukas Pezenka\Desktop\path952.png"
   inkscape:export-xdpi="299"
   inkscape:export-ydpi="299" /><path
   style="fill:#999999;fill-opacity:1;stroke:#999999;stroke-width:0.209859;stroke-miterlimit:4;stroke-dasharray:none;stroke-dashoffset:0"
   d="m 287.30174,243.7055 c -1.83111,-0.40403 -2.96081,-2.40945 -2.74504,-4.87293 0.10428,-1.19058 0.24434,-1.65771 0.7461,-2.48835 0.59663,-0.9877 1.36627,-1.47804 2.49844,-1.59174 1.34787,-0.13536 2.31479,0.0167 2.92722,0.46034 0.96704,0.70053 1.51733,1.93622 1.51733,3.40718 0,0.5145 -0.0497,0.65094 -0.28523,0.78251 -0.18996,0.10613 -1.19562,0.18601 -3.0108,0.23917 -1.49906,0.0439 -2.73983,0.0883 -2.75726,0.0986 -0.0174,0.0103 -0.0312,0.17572 -0.0304,0.36745 10e-4,0.44062 0.51358,1.54246 0.85979,1.85023 0.69451,0.61739 1.90242,0.7312 3.55522,0.33497 0.58125,-0.13934 1.10893,-0.22114 1.17262,-0.18178 0.0637,0.0393 0.11581,0.26655 0.11581,0.50486 0,0.49626 -0.32241,0.77453 -1.10638,0.9549 -0.6994,0.16092 -2.94227,0.2482 -3.45737,0.13455 z m 3.35231,-5.81621 c -0.24917,-1.44493 -1.32645,-2.23291 -2.64588,-1.93532 -0.71158,0.16048 -1.10132,0.49004 -1.49874,1.26729 -0.60853,1.19012 -0.68772,1.14342 1.93899,1.14342 h 2.28762 z"
   id="path922"
   inkscape:connector-curvature="0"
   inkscape:export-filename="C:\Users\Lukas Pezenka\Desktop\path952.png"
   inkscape:export-xdpi="299"
   inkscape:export-ydpi="299" /><path
   style="fill:#999999;fill-opacity:1;stroke:#999999;stroke-width:0.209859;stroke-miterlimit:4;stroke-dasharray:none;stroke-dashoffset:0"
   d="m 296.10332,243.514 c -0.74974,-0.34911 -1.35807,-1.03151 -1.6458,-1.84619 -0.28177,-0.79784 -0.38774,-3.08178 -0.18326,-3.9502 0.29102,-1.23601 0.99135,-2.30414 1.77465,-2.7067 0.95899,-0.49286 2.6362,-0.36851 3.55508,0.26357 0.34223,0.2354 0.65213,0.42801 0.68868,0.42801 0.0365,0 0.0664,-1.10787 0.0664,-2.46195 v -2.46195 l 0.3771,-0.0828 c 0.20741,-0.0455 0.56769,-0.014 0.80064,0.0703 l 0.42353,0.15316 -0.0549,6.28982 c -0.0302,3.45939 -0.0718,6.30868 -0.0925,6.33175 -0.0207,0.0231 -0.31353,0.0516 -0.65072,0.0634 l -0.61305,0.0214 -0.0393,-0.47538 c -0.0216,-0.26147 -0.0724,-0.47539 -0.11276,-0.47539 -0.0403,0 -0.36233,0.17777 -0.71547,0.39506 -1.34096,0.8251 -2.46145,0.96416 -3.57838,0.44406 z m 2.38999,-1.13637 c 0.22437,-0.0938 0.73596,-0.47029 1.13687,-0.83673 l 0.72893,-0.66625 -0.008,-1.09652 c -0.01,-1.43283 -0.14951,-2.23747 -0.46112,-2.65728 -0.37268,-0.50207 -1.34474,-1.0595 -1.96637,-1.1276 -0.69355,-0.076 -1.30007,0.3086 -1.74838,1.10863 -0.28903,0.51578 -0.31693,0.69948 -0.31693,2.08681 0,1.36917 0.0317,1.58459 0.31693,2.15491 0.52687,1.05344 1.37052,1.42984 2.31763,1.03403 z"
   id="path924"
   inkscape:connector-curvature="0"
   inkscape:export-filename="C:\Users\Lukas Pezenka\Desktop\path952.png"
   inkscape:export-xdpi="299"
   inkscape:export-ydpi="299" /><path
   style="fill:#999999;fill-opacity:1;stroke:#999999;stroke-width:0.209859;stroke-miterlimit:4;stroke-dasharray:none;stroke-dashoffset:0"
   d="m 320.26058,246.91988 c -0.13071,-0.15749 -0.0861,-0.37941 0.24873,-1.23601 0.7685,-1.96632 0.84292,-1.38869 -0.72495,-5.62683 -1.69095,-4.57083 -1.86434,-5.12537 -1.64598,-5.26402 0.27836,-0.17674 0.94589,-0.11225 1.21266,0.11716 0.25537,0.21962 0.81399,1.56479 2.00051,4.81729 0.33702,0.92384 0.65347,1.67971 0.70322,1.67971 0.10838,0 0.57968,-1.22394 1.57541,-4.09121 0.40612,-1.16943 0.8435,-2.23906 0.97196,-2.37694 0.36643,-0.39332 1.3647,-0.31177 1.36455,0.11149 -1.8e-4,0.5397 -4.12724,11.68749 -4.40659,11.90287 -0.28605,0.22053 -1.10623,0.19938 -1.29952,-0.0335 z"
   id="path926"
   inkscape:connector-curvature="0"
   inkscape:export-filename="C:\Users\Lukas Pezenka\Desktop\path952.png"
   inkscape:export-xdpi="299"
   inkscape:export-ydpi="299" /><path
   style="fill:#999999;fill-opacity:1;stroke:#999999;stroke-width:0.209859;stroke-miterlimit:4;stroke-dasharray:none;stroke-dashoffset:0"
   d="m 311.76846,243.50538 c -0.31376,-0.16425 -0.70877,-0.44683 -0.8778,-0.62795 -0.16904,-0.18113 -0.35116,-0.32932 -0.40472,-0.32932 -0.0536,0 -0.11492,0.24244 -0.13636,0.53877 l -0.039,0.53878 -0.60216,0.0386 -0.60216,0.0386 1.8e-4,-2.82759 c 1.3e-4,-1.55517 0.0379,-4.49621 0.0838,-6.53563 l 0.0836,-3.70804 h 0.59335 0.59334 l 0.0835,2.49318 c 0.0459,1.37125 0.10829,2.51798 0.13859,2.54828 0.0303,0.0303 0.40161,-0.15878 0.82511,-0.42018 0.69683,-0.43011 0.85727,-0.47621 1.68798,-0.48511 1.77906,-0.019 2.36395,0.28935 3.02234,1.59362 1.07283,2.12524 0.61087,5.71104 -0.86755,6.7341 -1.1181,0.77373 -2.56967,0.9398 -3.58209,0.40981 z m 2.03316,-1.2425 c 0.81509,-0.41103 1.16973,-1.17461 1.24136,-2.67277 0.0899,-1.87924 -0.30187,-2.95558 -1.255,-3.44847 -0.74011,-0.38273 -1.4123,-0.17394 -2.49819,0.77597 l -0.66226,0.57933 v 1.75793 1.75792 l 0.63246,0.54581 c 0.73805,0.63694 1.34936,0.98951 1.71564,0.98951 0.1432,0 0.51489,-0.12836 0.82599,-0.28523 z"
   id="path928"
   inkscape:connector-curvature="0"
   inkscape:export-filename="C:\Users\Lukas Pezenka\Desktop\path952.png"
   inkscape:export-xdpi="299"
   inkscape:export-ydpi="299" /><path
   style="fill:#999999;fill-opacity:1;stroke:#999999;stroke-width:0.209859;stroke-miterlimit:4;stroke-dasharray:none;stroke-dashoffset:0"
   d="m 332.79043,243.59918 c -0.32904,-0.0504 -0.34007,-0.0801 -0.38031,-1.02686 -0.0228,-0.53625 -0.0209,-3.2426 0.004,-6.01412 l 0.0457,-5.03913 h 0.66467 0.66468 l 0.082,0.9699 c 0.0451,0.53345 0.082,2.92105 0.082,5.30576 v 4.33586 l 0.96991,0.082 c 0.53344,0.0451 1.56029,0.082 2.28187,0.082 h 1.31196 v 0.69724 0.69723 l -2.69387,-0.019 c -1.48163,-0.0104 -2.84637,-0.0423 -3.03274,-0.0709 z"
   id="path930"
   inkscape:connector-curvature="0"
   inkscape:export-filename="C:\Users\Lukas Pezenka\Desktop\path952.png"
   inkscape:export-xdpi="299"
   inkscape:export-ydpi="299" /><path
   style="fill:#999999;fill-opacity:1;stroke:#999999;stroke-width:0.209859;stroke-miterlimit:4;stroke-dasharray:none;stroke-dashoffset:0"
   d="m 341.93985,243.67402 c -0.45363,-0.17993 -1.11962,-0.85258 -1.42856,-1.44284 -0.21987,-0.42008 -0.28152,-0.84423 -0.35929,-2.47203 -0.0516,-1.08071 -0.0983,-2.62858 -0.10379,-3.4397 -0.01,-1.42614 -5.3e-4,-1.47729 0.27531,-1.55121 0.39072,-0.10471 1.01539,-0.0957 1.18991,0.0171 0.0985,0.0636 0.16049,1.0555 0.19603,3.13562 0.0448,2.62007 0.0842,3.10898 0.28404,3.52133 0.33753,0.69649 0.75744,0.97919 1.453,0.97819 0.62328,-6.6e-4 0.85455,-0.12036 1.82951,-0.9451 l 0.59372,-0.50223 v -3.06897 -3.06896 l 0.37987,-0.0834 c 0.20894,-0.0459 0.58257,-0.0166 0.8303,0.0652 l 0.45043,0.14865 -0.038,4.22874 c -0.026,2.88902 -0.0827,4.27339 -0.17907,4.36966 -0.0776,0.0775 -0.32856,0.14626 -0.55767,0.15277 -0.46601,0.0132 -0.7591,-0.27605 -0.7591,-0.74928 0,-0.37412 -0.16957,-0.36965 -0.67761,0.0178 -0.98503,0.75133 -2.46209,1.05232 -3.37905,0.68861 z"
   id="path932"
   inkscape:connector-curvature="0"
   inkscape:export-filename="C:\Users\Lukas Pezenka\Desktop\path952.png"
   inkscape:export-xdpi="299"
   inkscape:export-ydpi="299" /><path
   style="fill:#999999;fill-opacity:1;stroke:#999999;stroke-width:0.209859;stroke-miterlimit:4;stroke-dasharray:none;stroke-dashoffset:0"
   d="m 350.3067,237.16036 v -6.52869 h 0.74058 0.74058 l 0.0831,2.37695 c 0.0457,1.30733 0.0832,3.03252 0.0834,3.83378 l 3.6e-4,1.45681 1.67971,-1.73213 c 1.09741,-1.13165 1.80673,-1.76385 2.04613,-1.82364 0.44889,-0.11213 1.01186,0.069 1.06453,0.34246 0.0229,0.11877 -0.61596,0.88192 -1.54861,1.85001 l -1.58754,1.64784 0.92157,1.18986 c 1.50964,1.94913 2.63347,3.56338 2.5845,3.71237 -0.0252,0.0768 -0.3204,0.15739 -0.6559,0.17904 -0.54338,0.0351 -0.65817,-0.007 -1.0511,-0.38031 -0.24262,-0.23082 -1.1046,-1.27341 -1.91551,-2.31688 l -1.4744,-1.89719 -0.0825,0.69288 c -0.0454,0.38108 -0.0882,1.30987 -0.0951,2.06399 -0.0158,1.72515 -0.082,1.86153 -0.9044,1.86153 h -0.62939 z"
   id="path934"
   inkscape:connector-curvature="0"
   inkscape:export-filename="C:\Users\Lukas Pezenka\Desktop\path952.png"
   inkscape:export-xdpi="299"
   inkscape:export-ydpi="299" /><path
   style="fill:#999999;fill-opacity:1;stroke:#999999;stroke-width:0.209859;stroke-miterlimit:4;stroke-dasharray:none;stroke-dashoffset:0"
   d="m 359.91135,243.68958 c -1.11482,-0.33567 -1.74487,-1.17932 -1.74487,-2.33641 0,-1.80525 1.22994,-2.68313 3.96157,-2.82762 l 1.36279,-0.0721 v -0.36857 c 0,-0.63286 -0.26947,-1.47518 -0.57867,-1.80882 -0.26174,-0.28241 -0.39794,-0.31972 -1.15837,-0.31737 -0.60697,0.002 -1.12412,0.0993 -1.74915,0.32954 -1.17026,0.43105 -1.38372,0.44099 -1.43668,0.0669 -0.0753,-0.53224 0.0882,-0.84984 0.57697,-1.1202 0.92554,-0.51201 2.91006,-0.71233 4.02897,-0.40668 0.69324,0.18935 1.31935,0.68945 1.5519,1.23956 0.1888,0.44659 0.38883,3.65606 0.40626,6.5183 l 0.007,1.11557 -0.72893,-0.038 c -0.64574,-0.0337 -0.73357,-0.0706 -0.76945,-0.32325 -0.0469,-0.3305 -0.41671,-0.38428 -0.65639,-0.0955 -0.37056,0.44649 -2.19149,0.70999 -3.07274,0.44464 z m 2.75371,-1.57522 c 0.57843,-0.44119 0.82578,-0.99929 0.82578,-1.86318 v -0.65703 l -1.19951,0.0788 c -1.90247,0.12496 -2.48056,0.49995 -2.4728,1.60397 0.007,0.96084 0.44109,1.29747 1.59707,1.23782 0.62105,-0.0321 0.87196,-0.11244 1.24946,-0.40037 z"
   id="path936"
   inkscape:connector-curvature="0"
   inkscape:export-filename="C:\Users\Lukas Pezenka\Desktop\path952.png"
   inkscape:export-xdpi="299"
   inkscape:export-ydpi="299" /><path
   style="fill:#999999;fill-opacity:1;stroke:#999999;stroke-width:0.209859;stroke-miterlimit:4;stroke-dasharray:none;stroke-dashoffset:0"
   d="m 368.24474,243.63408 c -0.59916,-0.22236 -1.07755,-0.72888 -1.07755,-1.1409 0,-0.54306 0.25605,-0.59811 1.21247,-0.26065 1.78337,0.62924 3.10289,0.25808 3.1352,-0.8819 0.0174,-0.61385 -0.36027,-0.97487 -1.67532,-1.60139 -1.36629,-0.65093 -1.84757,-1.01535 -2.16644,-1.6404 -0.48406,-0.94883 -0.26754,-2.03284 0.54929,-2.75003 0.55898,-0.49079 1.15605,-0.66906 2.24083,-0.66906 1.5018,0 2.34731,0.45697 2.25987,1.22139 -0.0499,0.43565 -0.2576,0.44882 -1.52818,0.0969 -0.77525,-0.21472 -0.90188,-0.21919 -1.38998,-0.0491 -0.42958,0.14974 -0.57216,0.27992 -0.71264,0.65063 -0.29183,0.77009 -0.0555,1.06542 1.50504,1.88096 2.22525,1.16291 2.52807,1.48174 2.52807,2.6618 0,1.03058 -0.67921,2.06497 -1.58463,2.41329 -0.63105,0.24276 -2.70995,0.2859 -3.29603,0.0684 z"
   id="path938"
   inkscape:connector-curvature="0"
   inkscape:export-filename="C:\Users\Lukas Pezenka\Desktop\path952.png"
   inkscape:export-xdpi="299"
   inkscape:export-ydpi="299" /><path
   style="fill:#999999;fill-opacity:1;stroke:#999999;stroke-width:0.209859;stroke-miterlimit:4;stroke-dasharray:none;stroke-dashoffset:0"
   d="m 435.143,243.67272 c -0.69843,-0.20143 -1.37576,-0.99193 -1.54391,-1.8019 -0.20112,-0.96876 -0.007,-1.63515 0.67522,-2.31731 0.66321,-0.66319 1.36984,-0.88241 3.23393,-1.00322 1.38446,-0.0897 1.41108,-0.0973 1.41108,-0.39932 0,-0.64106 -0.2878,-1.41968 -0.65447,-1.77068 -0.35188,-0.33682 -0.44613,-0.36078 -1.4142,-0.35954 -0.86317,0.001 -1.1621,0.0596 -1.78146,0.34862 -0.91169,0.42542 -0.94347,0.4261 -1.09664,0.0232 -0.33858,-0.89053 0.80715,-1.57776 2.79167,-1.67449 1.44219,-0.0703 2.11701,0.0868 2.7461,0.63911 0.77869,0.6837 0.80347,0.83109 0.80347,4.77817 v 3.55364 h -0.49157 c -0.53009,0 -0.72682,-0.15049 -0.79569,-0.60865 l -0.0439,-0.29172 -0.44209,0.32744 c -0.83283,0.61686 -2.33525,0.863 -3.39762,0.55661 z m 2.5924,-1.38803 c 0.29928,-0.14488 0.6881,-0.43449 0.86403,-0.64358 0.27085,-0.32189 0.31989,-0.50763 0.31989,-1.21171 v -0.83156 l -1.17264,0.0633 c -1.82231,0.0984 -2.63048,0.56822 -2.63048,1.52903 0,0.39488 0.0878,0.58362 0.431,0.92687 0.37007,0.37006 0.51682,0.43102 1.03755,0.43102 0.35499,0 0.83216,-0.10924 1.15065,-0.26342 z"
   id="path940"
   inkscape:connector-curvature="0"
   inkscape:export-filename="C:\Users\Lukas Pezenka\Desktop\path952.png"
   inkscape:export-xdpi="299"
   inkscape:export-ydpi="299" /><path
   style="fill:#999999;fill-opacity:1;stroke:#999999;stroke-width:0.209859;stroke-miterlimit:4;stroke-dasharray:none;stroke-dashoffset:0"
   d="m 425.73519,237.16036 v -6.52869 h 0.67878 0.67879 l 0.0926,3.83481 c 0.0509,2.10915 0.1111,3.85341 0.13373,3.87614 0.0226,0.0228 0.28814,-0.23398 0.59003,-0.57046 1.7257,-1.92352 2.82724,-2.95629 3.23471,-3.03272 0.53959,-0.10123 1.05667,0.0282 1.05667,0.26455 0,0.10124 -0.72418,0.93152 -1.60931,1.84508 -1.34489,1.38813 -1.58722,1.69637 -1.47498,1.87607 0.0738,0.11827 0.74912,1.01256 1.50056,1.98731 1.68616,2.18719 2.01082,2.67158 1.90518,2.84251 -0.0456,0.0737 -0.36622,0.13408 -0.71258,0.13408 -0.57203,0 -0.6789,-0.0494 -1.16701,-0.53877 -0.29551,-0.29633 -1.16397,-1.36143 -1.9299,-2.36689 l -1.39263,-1.82811 -0.0817,2.2305 c -0.0449,1.22678 -0.11959,2.29187 -0.16594,2.36688 -0.0463,0.075 -0.36616,0.13639 -0.71067,0.13639 h -0.62635 z"
   id="path942"
   inkscape:connector-curvature="0"
   inkscape:export-filename="C:\Users\Lukas Pezenka\Desktop\path952.png"
   inkscape:export-xdpi="299"
   inkscape:export-ydpi="299" /><path
   style="fill:#999999;fill-opacity:1;stroke:#999999;stroke-width:0.209859;stroke-miterlimit:4;stroke-dasharray:none;stroke-dashoffset:0"
   d="m 415.46677,239.26686 v -4.42219 l 0.28522,-0.0764 c 0.80574,-0.21594 1.23601,0.05 1.23601,0.76381 v 0.44529 l 0.49416,-0.39136 c 0.78946,-0.62528 1.50232,-0.89174 2.39396,-0.89486 1.31492,-0.005 1.98062,0.37712 2.53766,1.45507 0.31914,0.6176 0.32878,0.70863 0.37611,3.54958 0.0267,1.60365 0,3.14391 -0.061,3.42281 -0.10241,0.47399 -0.14134,0.50971 -0.59669,0.54742 -0.2679,0.0222 -0.54601,-0.0186 -0.61802,-0.0906 -0.077,-0.0771 -0.16993,-1.37994 -0.22576,-3.16713 -0.076,-2.43189 -0.13709,-3.12519 -0.30701,-3.48327 -0.58571,-1.2343 -1.91538,-1.21406 -3.28676,0.05 l -0.57988,0.53453 v 3.08973 3.08974 h -0.82401 -0.82402 z"
   id="path944"
   inkscape:connector-curvature="0"
   inkscape:export-filename="C:\Users\Lukas Pezenka\Desktop\path952.png"
   inkscape:export-xdpi="299"
   inkscape:export-ydpi="299" /><path
   style="fill:#999999;fill-opacity:1;stroke:#999999;stroke-width:0.209859;stroke-miterlimit:4;stroke-dasharray:none;stroke-dashoffset:0"
   d="m 407.88242,243.5743 c -0.79499,-0.27457 -1.54232,-0.95522 -1.95159,-1.77748 -0.26168,-0.5257 -0.2886,-0.75724 -0.28869,-2.48136 -1.1e-4,-2.19248 0.15024,-2.69843 1.06587,-3.58702 0.78907,-0.76577 1.29037,-0.95587 2.67783,-1.01547 1.05183,-0.0452 1.28621,-0.0154 1.80906,0.23044 1.17126,0.55056 1.79836,1.60011 2.04586,3.42405 0.15311,1.12851 -0.22541,1.25759 -3.70053,1.2619 -2.73262,0.003 -2.57724,-0.061 -2.30076,0.95381 0.24579,0.90221 0.49249,1.28339 1.02394,1.58207 0.76553,0.43026 1.92552,0.4781 3.26127,0.13449 0.93925,-0.24162 1.08748,-0.25191 1.25244,-0.087 0.29151,0.29152 0.0964,0.75719 -0.44392,1.05922 -1.00462,0.5616 -3.25702,0.71458 -4.45078,0.30231 z m 3.73041,-5.73002 c -0.11959,-0.74786 -0.39629,-1.2113 -0.93519,-1.56631 -1.01638,-0.66954 -2.05114,-0.49533 -2.91727,0.49114 -0.32867,0.37434 -0.65694,1.12091 -0.65976,1.50049 0,0.0523 1.03342,0.0951 2.29737,0.0951 h 2.29807 z"
   id="path946"
   inkscape:connector-curvature="0"
   inkscape:export-filename="C:\Users\Lukas Pezenka\Desktop\path952.png"
   inkscape:export-xdpi="299"
   inkscape:export-ydpi="299" /><path
   style="fill:#999999;fill-opacity:1;stroke:#999999;stroke-width:0.209859;stroke-miterlimit:4;stroke-dasharray:none;stroke-dashoffset:0"
   d="m 398.70136,243.59824 c -0.31797,-0.0482 -0.34862,-0.10066 -0.34862,-0.59701 0,-0.67857 0.29986,-1.25014 2.28348,-4.35262 l 1.51889,-2.37564 -1.74271,-0.1062 c -0.9585,-0.0585 -1.81404,-0.16522 -1.9012,-0.23737 -0.0872,-0.0722 -0.15846,-0.29674 -0.15846,-0.4991 0,-0.27831 0.0792,-0.39805 0.32518,-0.49156 0.17885,-0.068 1.43387,-0.12364 2.78895,-0.12364 h 2.46377 v 0.51071 c 0,0.66651 -0.39455,1.43248 -2.27685,4.42018 -0.83945,1.33242 -1.52627,2.44266 -1.52627,2.46723 0,0.0246 0.83209,0.0851 1.84906,0.13454 1.01701,0.0495 1.92758,0.12002 2.02351,0.15683 0.43564,0.16717 0.35807,0.98142 -0.10533,1.10564 -0.30852,0.0827 -4.63419,0.0727 -5.1934,-0.012 z"
   id="path948"
   inkscape:connector-curvature="0"
   inkscape:export-filename="C:\Users\Lukas Pezenka\Desktop\path952.png"
   inkscape:export-xdpi="299"
   inkscape:export-ydpi="299" /><path
   style="fill:#0066ff;fill-opacity:1;stroke:#0066ff;stroke-width:0.209859;stroke-miterlimit:4;stroke-dasharray:none;stroke-dashoffset:0"
   d="m 391.34208,243.64135 c -1.11366,-0.41707 -2.07146,-1.40321 -2.35505,-2.42473 -0.24415,-0.87945 -0.17799,-3.08929 0.12153,-4.05901 0.5325,-1.72405 1.88389,-2.55722 3.96267,-2.44309 2.04109,0.11207 3.00742,1.07135 3.403,3.37823 0.15033,0.87665 0.1457,0.92015 -0.12699,1.19304 -0.2734,0.27359 -0.38025,0.28465 -3.14482,0.3256 l -2.8618,0.0424 0.0839,0.59146 c 0.10708,0.75448 0.64903,1.65009 1.18952,1.96574 0.60789,0.35504 1.91529,0.42055 2.93762,0.1472 1.41182,-0.37749 1.37058,-0.37697 1.53346,-0.0194 0.21235,0.46606 -0.1025,0.88788 -0.86371,1.15715 -0.84364,0.29844 -3.23182,0.38802 -3.87937,0.14551 z m 3.58229,-5.5619 c -0.008,-0.41677 -0.31511,-1.21284 -0.58454,-1.51586 -0.30304,-0.3408 -1.1508,-0.72798 -1.60173,-0.73154 -0.76318,-0.006 -1.80586,0.7891 -2.16628,1.65191 -0.3376,0.80822 -0.20299,0.85785 2.36148,0.87071 1.99062,0.01 1.99662,0.009 1.99107,-0.27522 z"
   id="path950"
   inkscape:connector-curvature="0"
   inkscape:export-filename="C:\Users\Lukas Pezenka\Desktop\path952.png"
   inkscape:export-xdpi="299"
   inkscape:export-ydpi="299" /><path
   style="fill:#0066ff;fill-opacity:1;stroke:#0066ff;stroke-width:0.209859;stroke-miterlimit:4;stroke-dasharray:none;stroke-dashoffset:0"
   d="m 379.97547,243.44384 c -0.17272,-0.32274 -0.17894,-10.68253 -0.007,-11.28284 0.0684,-0.23867 0.19679,-0.47988 0.28523,-0.536 0.23178,-0.14711 2.57075,-0.12909 3.73287,0.0288 1.24295,0.16884 1.93062,0.49298 2.55802,1.20573 0.61237,0.6957 0.83164,1.44277 0.75116,2.55935 -0.10327,1.43298 -0.99476,2.75486 -2.19655,3.257 -0.4851,0.20269 -2.16791,0.44945 -3.06508,0.44945 h -0.54209 v 2.28187 2.28187 h -0.69278 c -0.55519,0 -0.71885,-0.0487 -0.82401,-0.24521 z m 3.75926,-5.85416 c 0.36181,-0.0699 0.8111,-0.24772 0.9984,-0.39506 0.80342,-0.63196 1.07021,-2.24357 0.52847,-3.19232 -0.41306,-0.72337 -0.96493,-0.95621 -2.48608,-1.04887 l -1.28326,-0.0782 v 2.50363 2.50362 l 0.79231,-0.0828 c 0.43578,-0.0455 1.08835,-0.14004 1.45016,-0.20998 z"
   id="path952"
   inkscape:connector-curvature="0"
   inkscape:export-filename="C:\Users\Lukas Pezenka\Desktop\path952.png"
   inkscape:export-xdpi="299"
   inkscape:export-ydpi="299" /></svg>
