<?xml version="1.0" encoding="UTF-8" standalone="no"?>
<svg
   width="456"
   height="456"
   viewBox="0 0 456 456"
   version="1.1"
   xml:space="preserve"
   style="fill-rule:evenodd;clip-rule:evenodd;stroke-linejoin:round;stroke-miterlimit:2;"
   id="svg4"
   sodipodi:docname="appiconfg.svg"
   inkscape:version="1.3 (0e150ed6c4, 2023-07-21)"
   xmlns:inkscape="http://www.inkscape.org/namespaces/inkscape"
   xmlns:sodipodi="http://sodipodi.sourceforge.net/DTD/sodipodi-0.dtd"
   xmlns="http://www.w3.org/2000/svg"
   xmlns:svg="http://www.w3.org/2000/svg"><defs
   id="defs4" /><sodipodi:namedview
   id="namedview4"
   pagecolor="#505050"
   bordercolor="#eeeeee"
   borderopacity="1"
   inkscape:showpageshadow="0"
   inkscape:pageopacity="0"
   inkscape:pagecheckerboard="0"
   inkscape:deskcolor="#505050"
   inkscape:zoom="0.63655117"
   inkscape:cx="176.73363"
   inkscape:cy="413.94944"
   inkscape:window-width="1920"
   inkscape:window-height="1017"
   inkscape:window-x="-8"
   inkscape:window-y="-8"
   inkscape:window-maximized="1"
   inkscape:current-layer="svg4" />&#10;    &#10;    &#10;    &#10;    &#10;<path
   style="fill:#0266ff;stroke:none;stroke-width:1.47838"
   d="m 122.47885,186.27327 -4.74663,20.41054 c 6.25543,2.56985 12.30962,5.64456 18.51188,8.3425 2.19678,0.95561 6.29972,1.93683 7.58143,4.10022 1.29662,2.18855 0.48785,6.44578 0.48785,8.91714 0,2.30967 1.06294,6.98929 -0.63251,8.72928 -4.23877,4.35007 -12.93569,6.71422 -18.35404,9.42514 -1.84055,0.92087 -5.58116,2.12531 -6.31602,4.2544 -0.59801,1.73255 0.61487,4.39887 1.09472,6.07101 1.30866,4.5602 2.73752,9.14237 3.79731,13.76523 6.94321,-0.87749 13.91071,-1.77209 20.8852,-2.33266 2.36698,-0.19024 5.82257,-1.22694 8.02497,-0.0275 2.51228,1.36826 3.74802,5.24593 5.17588,7.58144 1.18102,1.93176 4.2538,5.19939 3.88448,7.59462 -0.28288,1.83465 -2.15574,3.71488 -3.16186,5.22129 l -8.22749,12.34127 c -1.11515,1.67268 -3.83637,4.47152 -3.40433,6.64528 0.62196,3.1293 5.52499,5.94541 7.6763,8.07111 1.70911,1.68878 3.5241,4.25439 5.69596,5.34437 2.24778,1.12808 5.40379,-1.94948 7.11994,-3.17578 4.28809,-3.06413 8.47966,-6.28428 12.81592,-9.2783 1.55619,-1.07446 3.66254,-3.05561 5.69596,-2.74285 3.66034,0.56298 8.04774,4.25507 11.39194,5.93622 1.21453,0.61055 2.96208,1.20882 3.49221,2.59161 1.36044,3.54848 -0.34523,11.75144 -0.84568,15.56281 -0.34477,2.62585 -2.16604,11.3416 0.0133,13.2243 1.74364,1.50637 5.59163,1.70049 7.78287,2.26381 2.79746,0.71914 8.04612,3.14401 10.86746,2.21985 2.35088,-0.77005 3.35619,-4.77053 4.25586,-6.79069 1.90912,-4.28687 3.93135,-8.52259 5.82817,-12.81592 0.7979,-1.80597 1.41857,-4.58046 2.98021,-5.88422 1.40215,-1.17061 3.80325,-0.76107 5.49745,-0.76107 4.26098,0 8.61298,0.30561 12.81592,-0.47466 l 9.1358,19.46121 4.20459,6.34019 10.39278,-2.23012 8.73221,-3.35961 -0.46148,-9.29441 -2.10009,-19.46122 c 3.84964,-1.60317 7.38128,-3.88967 10.91726,-6.07942 1.68375,-1.04271 3.57975,-2.68676 5.69596,-2.11034 5.78676,1.57617 12.1037,7.71494 17.08789,11.03775 1.6727,1.11514 4.47154,3.83636 6.6453,3.40432 4.12492,-0.81984 8.59341,-8.07349 11.38644,-10.99894 1.11347,-1.16628 2.6482,-2.48668 2.13816,-4.27197 -1.21209,-4.24271 -6.19396,-8.84713 -8.83951,-12.34126 -7.34497,-9.70096 -15.00283,-19.17961 -22.24764,-28.95447 h -0.94933 c -8.21113,12.17172 -17.56448,22.19721 -30.85315,28.83726 -10.5854,5.28932 -21.48898,7.44107 -33.22644,7.32032 -10.87997,-0.11192 -21.099,-2.67158 -30.85315,-7.56057 -8.98939,-4.50568 -16.87023,-10.90056 -23.29623,-18.62909 -27.92361,-33.5835 -18.16611,-83.85977 18.07494,-106.94397 10.37363,-6.60763 21.64785,-9.27651 33.70112,-10.53748 9.55382,-0.99948 20.04368,0.97017 28.95448,4.42178 16.36127,6.33753 26.00332,17.53822 37.02376,30.4682 3.43557,-2.65153 5.8291,-7.32133 8.22751,-10.91726 4.76508,-7.14421 9.56312,-14.26222 14.393,-21.35986 1.91425,-2.81304 7.00368,-7.98674 7.21847,-11.39193 0.098,-1.55373 -1.33764,-2.78568 -2.31582,-3.79731 -2.54772,-2.63482 -8.14102,-9.87018 -11.85927,-10.36606 -2.08575,-0.27815 -4.58081,2.31388 -6.17062,3.408 -4.97583,3.42441 -11.2537,10.31528 -17.08789,11.91677 -3.23093,0.88689 -9.94372,-4.5072 -12.81591,-6.03254 -6.12696,-3.25384 -2.87051,-17.06673 -2.29275,-23.13401 0.19868,-2.0862 1.275,-5.94912 -0.0937,-7.80156 -1.68149,-2.2757 -8.27614,-2.53901 -10.90408,-3.17724 -2.34464,-0.56942 -5.59163,-2.01106 -8.01947,-1.60527 -2.39082,0.39959 -3.31052,4.51753 -4.12181,6.41344 -2.11367,4.93939 -4.45665,9.77533 -6.57057,14.71458 -0.78926,1.84415 -1.43397,4.48728 -3.61822,5.0704 -3.09266,0.82563 -14.37045,1.45544 -16.8436,-0.61017 -4.22656,-3.5301 -6.8824,-13.27184 -9.35922,-18.22548 -0.86383,-1.72765 -1.94973,-5.55006 -3.86544,-6.34021 -2.77647,-1.14521 -8.90246,1.68862 -11.68126,2.47624 -2.12526,0.60239 -5.64163,0.94739 -7.30821,2.48064 -1.57025,1.44462 -0.37361,5.21062 -0.26957,7.07929 0.34616,6.21653 3.44832,15.29937 1.86863,21.31006 -0.40117,1.52644 -2.06123,2.13095 -3.30946,2.83151 -3.43946,1.93033 -6.82085,4.63425 -10.4426,6.15962 -2.28797,0.96363 -4.32212,-0.77589 -6.17063,-1.98471 -4.63489,-3.0309 -9.25368,-6.18443 -13.76524,-9.39696 -1.65028,-1.17509 -4.77197,-4.31836 -6.91851,-2.9432 -2.00929,1.28722 -3.74453,3.68699 -5.42091,5.38355 -2.06262,2.08744 -6.55408,5.64922 -7.24669,8.54395 -0.52294,2.18568 2.1613,4.99494 3.31459,6.64528 2.78451,3.98459 5.60233,7.96444 8.50109,11.86659 1.17557,1.58247 3.38342,3.63246 3.54424,5.69597 0.18516,2.37583 -2.33168,5.15584 -3.43436,7.11995 -1.4577,2.59651 -2.84676,6.61807 -5.63736,8.0561 -2.38465,1.22883 -5.9846,0.23856 -8.53662,0.0769 -6.64598,-0.42093 -13.26945,-1.01307 -19.93587,-1.01307 m 68.82622,8.54395 4.18921,8.54394 0.0758,38.44775 -4.26502,9.96794 h 16.61323 c 1.37913,0 4.74208,0.59568 5.6381,-0.7607 1.44031,-2.18034 -3.18698,-4.187 -3.86177,-5.89192 -1.93758,-4.89538 -0.82701,-11.90973 -0.82701,-17.08056 6.74629,0 14.5272,0.72288 20.41054,-3.2516 7.96167,-5.37846 10.44786,-20.08511 1.89171,-26.15152 -4.90198,-3.47557 -9.99377,-3.11935 -15.65695,-3.36735 -8.06733,-0.35329 -16.11088,-0.45598 -24.20785,-0.45598 m 51.73834,0 c 0.1097,3.34998 3.24796,4.05659 3.72699,7.12032 1.88586,12.06118 0.8372,25.76313 0.53803,37.97272 -0.0455,1.85923 -0.10393,4.46457 -1.02698,6.12083 -1.40678,2.52442 -3.1991,2.4775 -3.23804,5.74576 h 40.82108 l 0.94933,-16.13856 c -1.69517,0.0351 -4.43504,-0.0832 -5.86261,0.96068 -2.57249,1.88109 -2.69395,6.16232 -5.54837,8.22275 -3.25053,2.34634 -8.98523,1.25916 -12.79687,1.25916 V 224.721 c 2.28738,0 5.01169,-0.39113 7.11262,0.69148 4.13,2.12824 3.68,5.0039 9.02593,5.00448 v -17.0878 c -5.32259,0.10984 -4.67934,2.98479 -8.56444,5.22679 -2.18411,1.26041 -5.15493,0.94383 -7.57411,0.94383 v -19.46121 c 3.87057,0 9.24484,-0.76101 12.7716,1.16615 2.59508,1.41804 2.70952,4.89321 5.01435,6.41529 1.50308,0.9926 4.22254,0.48783 5.94723,0.48783 V 194.81727 H 243.0434 m -33.70113,28.47982 c -2.0244,-6.84885 -0.47466,-16.11221 -0.47466,-23.25852 3.34504,0 8.02549,-0.30299 10.87259,1.75764 4.74778,3.43629 4.72025,14.45667 0.80867,18.49139 -2.89964,2.99095 -7.52345,2.1326 -11.2066,3.00949 z"
   id="path5" /></svg>
